<?xml version="1.0" encoding="UTF-8"?><svg id="Layer_2" xmlns="http://www.w3.org/2000/svg" xmlns:xlink="http://www.w3.org/1999/xlink" viewBox="0 0 1012 330"><defs><style>.cls-1{fill:#fff;}.cls-2{fill:#f55;}.cls-3{fill:#f1fa8c;}.cls-4{filter:url(#drop-shadow-1);}.cls-5{fill:#282a36;}.cls-6{fill:#50fa7b;}</style><filter id="drop-shadow-1" filterUnits="userSpaceOnUse"><feOffset dx="2" dy="2"/><feGaussianBlur result="blur" stdDeviation="2.83"/><feFlood flood-color="#282a36" flood-opacity=".75"/><feComposite in2="blur" operator="in"/><feComposite in="SourceGraphic"/></filter></defs><rect class="cls-5" width="1012" height="330" rx="8.04" ry="8.04"/><g class="cls-4"><path class="cls-2" d="M85.58,49.02l.94,1.28c-.48,.4-1.05,.73-1.72,.97s-1.34,.36-2,.36c-1.07,0-2-.23-2.77-.69s-1.36-1.12-1.77-1.96c-.41-.84-.61-1.83-.61-2.96s.21-2.08,.62-2.94,1.01-1.54,1.79-2.04c.78-.49,1.71-.74,2.78-.74,1.4,0,2.63,.42,3.67,1.27l-.93,1.28c-.91-.63-1.82-.94-2.73-.94-.62,0-1.15,.15-1.62,.45s-.82,.76-1.08,1.37c-.26,.61-.38,1.37-.38,2.28,0,1.34,.28,2.34,.83,2.98,.55,.65,1.3,.97,2.24,.97s1.85-.31,2.75-.94Z"/><path class="cls-2" d="M96.93,40.98c.71,.46,1.24,1.12,1.6,1.96,.36,.85,.54,1.85,.54,3s-.18,2.12-.55,2.97c-.37,.85-.91,1.52-1.62,1.99-.72,.48-1.58,.71-2.58,.71s-1.89-.23-2.6-.69-1.25-1.12-1.61-1.97c-.36-.85-.54-1.85-.54-3s.19-2.12,.55-2.97c.37-.85,.91-1.52,1.63-1.99,.72-.48,1.58-.71,2.59-.71s1.88,.23,2.59,.69Zm-4.61,1.88c-.45,.67-.67,1.7-.67,3.1s.22,2.41,.66,3.08c.44,.67,1.11,1.01,2.01,1.01s1.57-.34,2.01-1.01c.44-.67,.66-1.71,.66-3.1s-.22-2.41-.66-3.08c-.44-.67-1.1-1.01-1.99-1.01s-1.57,.34-2.02,1.01Z"/><path class="cls-2" d="M102.43,51.37v-10.82h1.69l.14,1.46c.44-.54,.97-.96,1.61-1.26s1.28-.45,1.93-.45c1.02,0,1.78,.28,2.28,.83,.5,.55,.75,1.34,.75,2.37v7.87h-1.97v-6.66c0-.75-.04-1.32-.12-1.71-.08-.4-.25-.69-.49-.88-.25-.19-.62-.29-1.11-.29-.54,0-1.05,.17-1.53,.5-.48,.33-.89,.74-1.22,1.22v7.83h-1.97Z"/><path class="cls-2" d="M120.4,49.62c.46-.29,.68-.68,.68-1.17,0-.34-.06-.61-.19-.83-.13-.22-.38-.42-.74-.6-.37-.18-.93-.37-1.67-.56-.81-.21-1.47-.43-1.99-.68-.52-.25-.92-.57-1.21-.97-.29-.4-.43-.9-.43-1.51s.17-1.14,.52-1.6c.35-.46,.84-.81,1.47-1.05,.63-.25,1.37-.37,2.21-.37,1.57,0,2.91,.41,4,1.22l-.84,1.28c-.46-.31-.94-.54-1.44-.71-.5-.16-1.06-.25-1.68-.25-.77,0-1.33,.12-1.68,.35-.36,.23-.53,.56-.53,.98,0,.3,.08,.55,.25,.74,.17,.19,.45,.37,.84,.52,.39,.16,.97,.34,1.73,.55,.78,.21,1.42,.45,1.92,.71,.5,.26,.89,.6,1.17,1.03,.28,.42,.42,.96,.42,1.62,0,.74-.22,1.35-.65,1.85-.43,.49-1,.86-1.7,1.09-.7,.23-1.47,.35-2.31,.35-.92,0-1.74-.13-2.46-.41-.72-.27-1.34-.63-1.86-1.08l1.09-1.25c.44,.36,.93,.65,1.48,.86,.55,.21,1.13,.31,1.75,.31,.79,0,1.41-.14,1.86-.43Z"/><path class="cls-2" d="M135.86,50.81c-.38,.25-.85,.44-1.39,.59s-1.08,.22-1.62,.22c-.79,0-1.46-.14-2.02-.43-.56-.28-.99-.68-1.27-1.19-.29-.51-.43-1.1-.43-1.78v-6.2h-2.45v-1.48h2.45v-2.44l1.97-.24v2.68h3.69l-.23,1.48h-3.47v6.18c0,.61,.16,1.06,.47,1.35,.31,.29,.82,.44,1.51,.44s1.41-.17,2.04-.51l.74,1.32Z"/><path class="cls-6" d="M159.3,49.8c-1.24,1.04-2.77,1.57-4.61,1.57h-3.34v-14.14h3.11c1.27,0,2.4,.19,3.38,.57,.98,.38,1.78,1.09,2.39,2.12,.62,1.03,.92,2.47,.92,4.31,0,2.68-.62,4.54-1.85,5.58Zm-.89-8.99c-.39-.79-.89-1.32-1.48-1.59-.59-.26-1.27-.4-2.04-.4h-1.51v10.94h1.53c1.19,0,2.17-.41,2.94-1.23,.77-.82,1.15-2.26,1.15-4.33,0-1.48-.2-2.61-.59-3.41Z"/><path class="cls-6" d="M170.83,40.98c.71,.46,1.24,1.12,1.6,1.96,.36,.85,.54,1.85,.54,3s-.18,2.12-.55,2.97c-.37,.85-.91,1.52-1.62,1.99-.72,.48-1.58,.71-2.58,.71s-1.89-.23-2.6-.69-1.25-1.12-1.61-1.97c-.36-.85-.54-1.85-.54-3s.19-2.12,.55-2.97c.37-.85,.91-1.52,1.63-1.99,.72-.48,1.58-.71,2.59-.71s1.88,.23,2.59,.69Zm-4.61,1.88c-.45,.67-.67,1.7-.67,3.1s.22,2.41,.66,3.08c.44,.67,1.11,1.01,2.01,1.01s1.57-.34,2.01-1.01c.44-.67,.66-1.71,.66-3.1s-.22-2.41-.66-3.08c-.44-.67-1.1-1.01-1.99-1.01s-1.57,.34-2.02,1.01Z"/><path class="cls-6" d="M185.31,37.22l.8,14.14h-1.91l-.4-7.17c-.05-1.09-.08-2.28-.08-3.54,0-.81,0-1.34,.02-1.6l-2.26,9.8h-1.91l-2.42-9.8c.04,.78,.06,1.74,.06,2.88,0,.87-.01,1.62-.04,2.26l-.34,7.17h-1.87l.8-14.14h2.64l2.18,9.6,2.07-9.6h2.66Z"/><path class="cls-6" d="M195.47,40.98c.71,.46,1.24,1.12,1.6,1.96,.36,.85,.54,1.85,.54,3s-.18,2.12-.55,2.97c-.37,.85-.91,1.52-1.62,1.99-.72,.48-1.58,.71-2.58,.71s-1.89-.23-2.6-.69-1.25-1.12-1.61-1.97c-.36-.85-.54-1.85-.54-3s.19-2.12,.55-2.97c.37-.85,.91-1.52,1.63-1.99,.72-.48,1.58-.71,2.59-.71s1.88,.23,2.59,.69Zm-4.61,1.88c-.45,.67-.67,1.7-.67,3.1s.22,2.41,.66,3.08c.44,.67,1.11,1.01,2.01,1.01s1.57-.34,2.01-1.01c.44-.67,.66-1.71,.66-3.1s-.22-2.41-.66-3.08c-.44-.67-1.1-1.01-1.99-1.01s-1.57,.34-2.02,1.01Z"/><path class="cls-6" d="M209.24,40.35c.24,.04,.5,.11,.78,.19l-.31,3.8h-1.52v-2.26h-.01c-1.62,0-2.79,1.16-3.49,3.48v4.34h2.2v1.46h-5.81v-1.46h1.64v-7.9h-1.64v-1.46h3.15l.36,2.54c.43-.94,.95-1.64,1.55-2.1,.6-.46,1.37-.69,2.3-.69,.29,0,.56,.02,.8,.06Z"/><path class="cls-6" d="M214.88,46.62c.03,.77,.19,1.4,.47,1.91,.28,.51,.64,.89,1.09,1.13,.45,.24,.96,.36,1.52,.36,.53,0,1.01-.08,1.46-.24s.92-.4,1.4-.73l.89,1.24c-.51,.41-1.1,.73-1.77,.97-.66,.23-1.35,.35-2.05,.35-1.07,0-1.98-.23-2.74-.7-.76-.47-1.34-1.13-1.73-1.98s-.6-1.84-.6-2.97,.2-2.06,.59-2.92c.39-.86,.95-1.53,1.68-2.02,.73-.49,1.58-.73,2.55-.73s1.72,.22,2.4,.65c.68,.43,1.2,1.05,1.56,1.85,.36,.8,.54,1.75,.54,2.85,0,.32-.01,.64-.04,.99h-7.24Zm.85-3.95c-.5,.57-.78,1.4-.85,2.51h5.38c-.02-1.09-.26-1.92-.71-2.49s-1.08-.86-1.88-.86-1.45,.28-1.94,.85Z"/><path class="cls-2" d="M238.02,42.17h8.21v1.66h-8.21v-1.66Zm0,3.96h8.21v1.66h-8.21v-1.66Z"/><path class="cls-3" d="M265.58,47.74c.3,1.02,.76,1.95,1.38,2.8s1.44,1.75,2.48,2.7l-1.07,1.07c-1.18-.97-2.16-1.94-2.92-2.89-.76-.96-1.35-2.03-1.76-3.2-.41-1.18-.62-2.52-.62-4.02s.21-2.85,.62-4.02,1-2.24,1.76-3.2c.76-.96,1.74-1.92,2.92-2.89l1.07,1.07c-1.03,.95-1.86,1.85-2.47,2.69-.62,.85-1.08,1.78-1.38,2.79-.3,1.02-.46,2.21-.46,3.57s.15,2.54,.46,3.56Z"/><path class="cls-3" d="M280.25,40.61c-.3-1.02-.76-1.95-1.38-2.79-.62-.84-1.44-1.74-2.47-2.69l1.07-1.07c1.18,.97,2.16,1.94,2.92,2.89,.76,.96,1.35,2.03,1.76,3.2,.41,1.18,.62,2.52,.62,4.02s-.21,2.85-.62,4.02c-.41,1.18-1,2.24-1.76,3.2-.76,.96-1.74,1.92-2.92,2.89l-1.07-1.07c1.04-.95,1.87-1.85,2.48-2.7,.61-.85,1.07-1.78,1.38-2.8,.3-1.02,.46-2.2,.46-3.56s-.15-2.55-.46-3.57Z"/><path class="cls-2" d="M310.07,43.78h-10.02v-1.66h10.02v1.66Zm0,3.98h-10.02v-1.66h10.02v1.66Z"/><path class="cls-2" d="M314.06,38.59l5.69,6.35-5.69,6.35-1.42-1.2,1.2-1.3c.18-.22,.36-.41,.54-.56s.39-.31,.65-.46h-5.38v-1.66h6.63l1.06-1.16-1.06-1.15h-6.63v-1.67h5.38c-.26-.15-.48-.3-.65-.46-.17-.16-.35-.35-.54-.56l-1.2-1.3,1.42-1.2Z"/><path class="cls-3" d="M343.82,35.7c-1.76,0-2.58,.53-2.47,1.58l.41,4.02c.02,.17,.03,.34,.03,.49,0,.71-.18,1.25-.54,1.63-.36,.37-.9,.62-1.61,.75,.73,.12,1.27,.36,1.63,.71,.35,.35,.53,.89,.53,1.61,0,.17,0,.36-.03,.55l-.41,4.02s0,.1,0,.17c0,.51,.22,.87,.67,1.08s1.05,.32,1.82,.32v1.5c-2.87,0-4.31-.95-4.31-2.84,0-.2,0-.35,.02-.45l.4-3.75c.01-.18,.02-.3,.02-.37,0-.4-.1-.74-.29-1-.19-.26-.51-.46-.96-.59-.45-.13-1.06-.19-1.83-.19v-1.58c.77,0,1.38-.06,1.83-.19,.45-.13,.77-.32,.96-.57s.29-.59,.29-.99c0-.08,0-.2-.02-.38l-.4-3.76c-.01-.1-.02-.25-.02-.45,0-1.9,1.44-2.84,4.31-2.84v1.5Z"/><path class="cls-2" d="M131.1,64.37c.24,.04,.5,.11,.78,.19l-.31,3.8h-1.52v-2.26h-.01c-1.62,0-2.79,1.16-3.49,3.48v4.34h2.2v1.46h-5.81v-1.46h1.64v-7.9h-1.64v-1.46h3.15l.36,2.54c.43-.94,.95-1.64,1.55-2.1,.6-.46,1.37-.69,2.3-.69,.29,0,.56,.02,.8,.06Z"/><path class="cls-2" d="M136.74,70.64c.03,.77,.19,1.4,.47,1.91,.28,.51,.64,.89,1.09,1.13,.45,.24,.96,.36,1.52,.36,.53,0,1.01-.08,1.46-.24s.92-.4,1.4-.73l.89,1.24c-.51,.41-1.1,.73-1.77,.97-.66,.23-1.35,.35-2.05,.35-1.07,0-1.98-.23-2.74-.7-.76-.47-1.34-1.13-1.73-1.98s-.6-1.84-.6-2.97,.2-2.06,.59-2.92c.39-.86,.95-1.53,1.68-2.02,.73-.49,1.58-.73,2.55-.73s1.72,.22,2.4,.65c.68,.43,1.2,1.05,1.56,1.85,.36,.8,.54,1.75,.54,2.85,0,.32-.01,.64-.04,.99h-7.24Zm.85-3.95c-.5,.57-.78,1.4-.85,2.51h5.38c-.02-1.09-.26-1.92-.71-2.49s-1.08-.86-1.88-.86-1.45,.28-1.94,.85Z"/><path class="cls-2" d="M156.26,74.83c-.38,.25-.85,.44-1.39,.59s-1.08,.22-1.62,.22c-.79,0-1.46-.14-2.02-.43-.56-.28-.99-.68-1.27-1.19-.29-.51-.43-1.1-.43-1.78v-6.2h-2.45v-1.48h2.45v-2.44l1.97-.24v2.68h3.69l-.23,1.48h-3.47v6.18c0,.61,.16,1.06,.47,1.35,.31,.29,.82,.44,1.51,.44s1.41-.17,2.04-.51l.74,1.32Z"/><path class="cls-2" d="M161.76,72.18c0,.68,.14,1.17,.41,1.47s.7,.45,1.29,.45c.53,0,1.05-.16,1.56-.47,.5-.31,.9-.7,1.2-1.16v-7.9h1.97v10.82h-1.69l-.14-1.43c-.41,.53-.92,.95-1.54,1.24-.62,.29-1.25,.44-1.9,.44-1.03,0-1.81-.28-2.34-.84s-.78-1.35-.78-2.38v-7.86h1.97v7.62Z"/><path class="cls-2" d="M180.37,64.37c.24,.04,.5,.11,.78,.19l-.31,3.8h-1.52v-2.26h-.01c-1.62,0-2.79,1.16-3.49,3.48v4.34h2.2v1.46h-5.81v-1.46h1.64v-7.9h-1.64v-1.46h3.15l.36,2.54c.43-.94,.95-1.64,1.55-2.1,.6-.46,1.37-.69,2.3-.69,.29,0,.56,.02,.8,.06Z"/><path class="cls-2" d="M184.42,75.39v-10.82h1.69l.14,1.46c.44-.54,.97-.96,1.61-1.26s1.28-.45,1.93-.45c1.02,0,1.78,.28,2.28,.83,.5,.55,.75,1.34,.75,2.37v7.87h-1.97v-6.66c0-.75-.04-1.32-.12-1.71-.08-.4-.25-.69-.49-.88-.25-.19-.62-.29-1.11-.29-.54,0-1.05,.17-1.53,.5-.48,.33-.89,.74-1.22,1.22v7.83h-1.97Z"/><path class="cls-2" d="M212.08,71.76c.3,1.02,.76,1.95,1.38,2.8s1.44,1.75,2.48,2.7l-1.07,1.07c-1.18-.97-2.16-1.94-2.92-2.89-.76-.96-1.35-2.03-1.76-3.2-.41-1.18-.62-2.52-.62-4.02s.21-2.85,.62-4.02,1-2.24,1.76-3.2c.76-.96,1.74-1.92,2.92-2.89l1.07,1.07c-1.03,.95-1.86,1.85-2.47,2.69-.62,.85-1.08,1.78-1.38,2.79-.3,1.02-.46,2.21-.46,3.57s.15,2.54,.46,3.56Z"/><path class="cls-1" d="M167.66,92.04l7.91-4.9,.93,1.47-7.15,4.36,7.15,4.37-1.02,1.44-7.83-4.9v-1.85Z"/><path class="cls-2" d="M186.61,84l1.97,.24v15.17h-1.73l-.16-1.39c-.38,.55-.83,.96-1.35,1.23s-1.09,.41-1.71,.41c-1.35,0-2.38-.51-3.06-1.52s-1.03-2.39-1.03-4.14c0-1.09,.17-2.07,.51-2.93,.34-.86,.83-1.53,1.47-2.02,.64-.49,1.4-.73,2.27-.73,1.16,0,2.1,.41,2.82,1.23v-5.56Zm-4.29,6.91c-.46,.69-.68,1.72-.68,3.09s.21,2.4,.63,3.08c.42,.68,1.03,1.02,1.83,1.02,.97,0,1.81-.54,2.51-1.63v-5.29c-.29-.42-.63-.74-1.02-.97-.39-.23-.82-.34-1.29-.34-.86,0-1.52,.34-1.98,1.03Z"/><path class="cls-2" d="M193.01,88.59h5.16v9.32h3.01v1.5h-8.27v-1.5h3.29v-7.82h-3.19v-1.5Zm4.68-4.8c.25,.25,.38,.56,.38,.93s-.13,.7-.38,.95-.58,.38-.99,.38-.72-.13-.97-.38c-.25-.25-.38-.57-.38-.95s.13-.68,.38-.93c.25-.25,.58-.38,.97-.38s.73,.13,.99,.38Z"/><path class="cls-2" d="M212.02,88.59h2.02l-3.88,10.82h-2.3l-3.86-10.82h2.09l2.97,9.11,2.96-9.11Z"/><path class="cls-6" d="M237.24,97.05l.94,1.28c-.48,.4-1.05,.73-1.72,.97s-1.34,.36-2,.36c-1.07,0-2-.23-2.77-.69s-1.36-1.12-1.77-1.96c-.41-.84-.61-1.83-.61-2.96s.21-2.08,.62-2.94,1.01-1.54,1.79-2.04c.78-.49,1.71-.74,2.78-.74,1.4,0,2.63,.42,3.67,1.27l-.93,1.28c-.91-.63-1.82-.94-2.73-.94-.62,0-1.15,.15-1.62,.45s-.82,.76-1.08,1.37c-.26,.61-.38,1.37-.38,2.28,0,1.34,.28,2.34,.83,2.98,.55,.65,1.3,.97,2.24,.97s1.85-.31,2.75-.94Z"/><path class="cls-6" d="M246.22,96.61c0,.49,.15,.85,.46,1.08,.3,.23,.73,.34,1.27,.34,.57,0,1.16-.12,1.78-.37l.51,1.41c-.34,.17-.73,.31-1.18,.42-.45,.11-.94,.16-1.48,.16-.68,0-1.27-.13-1.77-.38-.5-.26-.88-.62-1.16-1.1-.27-.48-.41-1.05-.41-1.7v-10.74h-3.29v-1.5h5.27v12.38Z"/><path class="cls-6" d="M262.07,96.92c0,.42,.07,.73,.2,.93,.13,.2,.35,.35,.65,.45l-.46,1.35c-1.07-.14-1.77-.64-2.09-1.51-.38,.49-.87,.87-1.46,1.13-.59,.26-1.24,.39-1.96,.39s-1.34-.14-1.87-.42c-.53-.28-.94-.67-1.22-1.18-.28-.51-.43-1.09-.43-1.77,0-1.12,.44-1.99,1.32-2.59,.88-.61,2.14-.91,3.79-.91h1.57v-.82c0-.72-.21-1.24-.64-1.57-.43-.33-1.05-.49-1.86-.49-.38,0-.82,.05-1.31,.14-.49,.09-1,.23-1.53,.42l-.5-1.44c1.25-.47,2.47-.71,3.64-.71,1.37,0,2.41,.31,3.11,.93,.7,.62,1.06,1.49,1.06,2.62v5.04Zm-3.11,.87c.46-.26,.85-.62,1.15-1.09v-2.62h-1.44c-1.1,0-1.9,.19-2.4,.56-.5,.37-.75,.91-.75,1.61,0,.64,.17,1.12,.5,1.44,.33,.32,.83,.49,1.48,.49,.51,0,.99-.13,1.46-.39Z"/><path class="cls-6" d="M272.06,97.66c.46-.29,.68-.68,.68-1.17,0-.34-.06-.61-.19-.83-.13-.22-.38-.42-.74-.6-.37-.18-.93-.37-1.67-.56-.81-.21-1.47-.43-1.99-.68-.52-.25-.92-.57-1.21-.97-.29-.4-.43-.9-.43-1.51s.17-1.14,.52-1.6c.35-.46,.84-.81,1.47-1.05,.63-.25,1.37-.37,2.21-.37,1.57,0,2.91,.41,4,1.22l-.84,1.28c-.46-.31-.94-.54-1.44-.71-.5-.16-1.06-.25-1.68-.25-.77,0-1.33,.12-1.68,.35-.36,.23-.53,.56-.53,.98,0,.3,.08,.55,.25,.74,.17,.19,.45,.37,.84,.52,.39,.16,.97,.34,1.73,.55,.78,.21,1.42,.45,1.92,.71,.5,.26,.89,.6,1.17,1.03,.28,.42,.42,.96,.42,1.62,0,.74-.22,1.35-.65,1.85-.43,.49-1,.86-1.7,1.09-.7,.23-1.47,.35-2.31,.35-.92,0-1.74-.13-2.46-.41-.72-.27-1.34-.63-1.86-1.08l1.09-1.25c.44,.36,.93,.65,1.48,.86,.55,.21,1.13,.31,1.75,.31,.79,0,1.41-.14,1.86-.43Z"/><path class="cls-6" d="M284.37,97.66c.45-.29,.68-.68,.68-1.17,0-.34-.06-.61-.19-.83-.12-.22-.37-.42-.74-.6-.37-.18-.93-.37-1.67-.56-.81-.21-1.47-.43-1.99-.68-.52-.25-.92-.57-1.21-.97-.29-.4-.43-.9-.43-1.51s.17-1.14,.52-1.6c.35-.46,.84-.81,1.47-1.05,.63-.25,1.37-.37,2.21-.37,1.57,0,2.91,.41,4,1.22l-.84,1.28c-.46-.31-.94-.54-1.44-.71-.5-.16-1.06-.25-1.68-.25-.77,0-1.33,.12-1.68,.35-.36,.23-.53,.56-.53,.98,0,.3,.08,.55,.25,.74,.17,.19,.45,.37,.84,.52,.39,.16,.97,.34,1.73,.55,.78,.21,1.42,.45,1.92,.71,.5,.26,.89,.6,1.17,1.03,.28,.42,.42,.96,.42,1.62,0,.74-.22,1.35-.65,1.85-.43,.49-1,.86-1.7,1.09-.71,.23-1.48,.35-2.31,.35-.92,0-1.74-.13-2.46-.41-.72-.27-1.34-.63-1.86-1.08l1.09-1.25c.44,.36,.93,.65,1.48,.86,.55,.21,1.13,.31,1.75,.31,.79,0,1.41-.14,1.86-.43Z"/><path class="cls-6" d="M292.26,87.14l.05,.68c.15,1.99,.22,3.59,.22,4.78v6.81h-1.85v-14.14h2.7l4.82,12.3-.03-.42c-.16-1.95-.25-3.64-.25-5.07v-6.81h1.85v14.14h-2.75l-4.77-12.27Z"/><path class="cls-6" d="M311.33,96.92c0,.42,.07,.73,.2,.93,.13,.2,.35,.35,.65,.45l-.46,1.35c-1.07-.14-1.77-.64-2.09-1.51-.38,.49-.87,.87-1.46,1.13-.59,.26-1.24,.39-1.95,.39s-1.34-.14-1.87-.42c-.53-.28-.94-.67-1.22-1.18-.28-.51-.43-1.09-.43-1.77,0-1.12,.44-1.99,1.32-2.59,.88-.61,2.14-.91,3.79-.91h1.57v-.82c0-.72-.21-1.24-.64-1.57-.43-.33-1.05-.49-1.86-.49-.38,0-.82,.05-1.31,.14s-1,.23-1.53,.42l-.5-1.44c1.25-.47,2.47-.71,3.64-.71,1.37,0,2.41,.31,3.11,.93,.7,.62,1.06,1.49,1.06,2.62v5.04Zm-3.11,.87c.47-.26,.85-.62,1.15-1.09v-2.62h-1.44c-1.1,0-1.9,.19-2.4,.56-.5,.37-.75,.91-.75,1.61,0,.64,.16,1.12,.5,1.44s.83,.49,1.48,.49c.51,0,.99-.13,1.46-.39Z"/><path class="cls-6" d="M324.5,89c.39,.44,.58,1.23,.58,2.36v8.05h-1.8v-7.76c0-.47-.02-.83-.05-1.06-.03-.24-.1-.41-.22-.53-.11-.12-.28-.18-.52-.18-.65,0-1.24,.4-1.77,1.2v8.33h-1.73v-7.76c0-.47-.01-.83-.05-1.06-.03-.24-.1-.41-.22-.53-.11-.12-.29-.18-.52-.18-.65,0-1.24,.4-1.77,1.2v8.33h-1.8v-10.82h1.52l.12,1.21c.34-.47,.69-.83,1.06-1.09,.36-.25,.79-.38,1.28-.38,.99,0,1.63,.47,1.92,1.41,.33-.45,.68-.8,1.05-1.04,.37-.24,.82-.36,1.33-.36,.64,0,1.16,.22,1.54,.67Z"/><path class="cls-6" d="M329.58,94.66c.03,.77,.19,1.4,.47,1.91,.28,.51,.64,.89,1.09,1.13,.45,.24,.96,.36,1.52,.36,.53,0,1.01-.08,1.46-.24s.92-.4,1.4-.73l.89,1.24c-.51,.41-1.1,.73-1.77,.97-.66,.23-1.35,.35-2.05,.35-1.07,0-1.98-.23-2.74-.7s-1.34-1.13-1.73-1.98-.59-1.84-.59-2.97,.2-2.06,.59-2.92c.39-.86,.95-1.53,1.68-2.02,.73-.49,1.58-.73,2.55-.73s1.72,.22,2.4,.65c.68,.43,1.2,1.05,1.56,1.85,.36,.8,.54,1.75,.54,2.85,0,.32-.01,.64-.04,.99h-7.24Zm.85-3.95c-.5,.57-.78,1.4-.85,2.51h5.38c-.02-1.09-.26-1.92-.71-2.49s-1.08-.86-1.88-.86-1.45,.28-1.94,.85Z"/><path class="cls-2" d="M340.4,90.21h8.21v1.66h-8.21v-1.66Zm0,3.96h8.21v1.66h-8.21v-1.66Z"/><path class="cls-3" d="M353.3,83.97c.15-.24,.35-.42,.59-.56,.25-.14,.52-.21,.81-.21s.56,.07,.81,.21c.25,.14,.44,.33,.59,.56,.15,.24,.22,.5,.22,.79,0,.21-.03,.41-.1,.62-.07,.21-.18,.49-.35,.86l-1.63,3.46h-1.42l.82-3.75c-.17-.13-.31-.3-.41-.51-.1-.21-.16-.44-.16-.68,0-.29,.07-.55,.22-.79Zm4.49,0c.15-.24,.35-.42,.59-.56,.25-.14,.52-.21,.81-.21s.57,.07,.82,.21c.25,.14,.45,.33,.59,.57,.14,.24,.22,.5,.22,.79,0,.22-.03,.43-.09,.64-.06,.21-.17,.49-.33,.84l-1.65,3.46h-1.42l.84-3.75c-.18-.13-.33-.3-.44-.51-.11-.21-.16-.44-.16-.68,0-.29,.07-.55,.22-.79Z"/><path class="cls-3" d="M371.37,84l1.97,.24v15.17h-1.73l-.16-1.39c-.38,.55-.83,.96-1.35,1.23s-1.09,.41-1.71,.41c-1.35,0-2.38-.51-3.06-1.52-.69-1.01-1.03-2.39-1.03-4.14,0-1.09,.17-2.07,.51-2.93,.34-.86,.83-1.53,1.47-2.02,.64-.49,1.4-.73,2.27-.73,1.16,0,2.1,.41,2.82,1.23v-5.56Zm-4.28,6.91c-.46,.69-.68,1.72-.68,3.09s.21,2.4,.63,3.08c.42,.68,1.03,1.02,1.83,1.02,.97,0,1.81-.54,2.51-1.63v-5.29c-.29-.42-.63-.74-1.02-.97-.39-.23-.82-.34-1.29-.34-.86,0-1.52,.34-1.98,1.03Z"/><path class="cls-3" d="M384.07,89.02c.71,.46,1.24,1.12,1.6,1.96,.36,.85,.54,1.85,.54,3s-.18,2.12-.55,2.97c-.37,.85-.91,1.52-1.62,1.99-.71,.48-1.57,.71-2.58,.71s-1.89-.23-2.6-.69c-.71-.46-1.25-1.12-1.61-1.97s-.54-1.85-.54-3,.18-2.12,.55-2.97c.37-.85,.91-1.52,1.63-1.99,.71-.48,1.58-.71,2.59-.71s1.88,.23,2.59,.69Zm-4.61,1.88c-.45,.67-.67,1.7-.67,3.1s.22,2.41,.66,3.08c.44,.67,1.11,1.01,2.01,1.01s1.57-.34,2.01-1.01,.66-1.71,.66-3.1-.22-2.41-.66-3.08-1.1-1.01-1.99-1.01-1.57,.34-2.02,1.01Z"/><path class="cls-3" d="M398.55,85.26l.8,14.14h-1.91l-.4-7.17c-.05-1.09-.08-2.28-.08-3.54,0-.81,0-1.34,.02-1.6l-2.26,9.8h-1.91l-2.42-9.8c.04,.78,.06,1.74,.06,2.88,0,.87-.01,1.62-.04,2.26l-.34,7.17h-1.87l.8-14.14h2.64l2.18,9.6,2.07-9.6h2.66Z"/><path class="cls-3" d="M408.7,89.02c.71,.46,1.24,1.12,1.6,1.96,.36,.85,.54,1.85,.54,3s-.18,2.12-.55,2.97c-.37,.85-.91,1.52-1.62,1.99-.71,.48-1.57,.71-2.58,.71s-1.89-.23-2.6-.69c-.71-.46-1.25-1.12-1.61-1.97s-.54-1.85-.54-3,.18-2.12,.55-2.97c.37-.85,.91-1.52,1.63-1.99,.71-.48,1.58-.71,2.59-.71s1.88,.23,2.59,.69Zm-4.61,1.88c-.45,.67-.67,1.7-.67,3.1s.22,2.41,.66,3.08c.44,.67,1.11,1.01,2.01,1.01s1.57-.34,2.01-1.01,.66-1.71,.66-3.1-.22-2.41-.66-3.08-1.1-1.01-1.99-1.01-1.57,.34-2.02,1.01Z"/><path class="cls-3" d="M422.47,88.39c.24,.04,.5,.11,.78,.19l-.31,3.8h-1.52v-2.26h0c-1.62,0-2.79,1.16-3.49,3.48v4.34h2.2v1.46h-5.81v-1.46h1.64v-7.9h-1.64v-1.46h3.15l.36,2.54c.43-.94,.95-1.64,1.55-2.1,.6-.46,1.37-.69,2.3-.69,.29,0,.56,.02,.8,.06Z"/><path class="cls-3" d="M428.12,94.66c.03,.77,.19,1.4,.47,1.91,.28,.51,.64,.89,1.09,1.13,.45,.24,.96,.36,1.52,.36,.53,0,1.01-.08,1.46-.24s.92-.4,1.4-.73l.89,1.24c-.51,.41-1.1,.73-1.77,.97-.66,.23-1.35,.35-2.05,.35-1.07,0-1.98-.23-2.74-.7s-1.34-1.13-1.73-1.98-.59-1.84-.59-2.97,.2-2.06,.59-2.92c.39-.86,.95-1.53,1.68-2.02,.73-.49,1.58-.73,2.55-.73s1.72,.22,2.4,.65c.68,.43,1.2,1.05,1.56,1.85,.36,.8,.54,1.75,.54,2.85,0,.32-.01,.64-.04,.99h-7.24Zm.85-3.95c-.5,.57-.78,1.4-.85,2.51h5.38c-.02-1.09-.26-1.92-.71-2.49s-1.08-.86-1.88-.86-1.45,.28-1.94,.85Z"/><path class="cls-3" d="M439.52,83.97c.15-.24,.35-.42,.59-.56,.25-.14,.52-.21,.81-.21s.56,.07,.81,.21c.25,.14,.44,.33,.59,.56,.15,.24,.22,.5,.22,.79,0,.21-.03,.41-.1,.62-.07,.21-.18,.49-.35,.86l-1.63,3.46h-1.42l.82-3.75c-.17-.13-.31-.3-.41-.51-.1-.21-.16-.44-.16-.68,0-.29,.07-.55,.22-.79Zm4.49,0c.15-.24,.35-.42,.59-.56,.25-.14,.52-.21,.81-.21s.57,.07,.82,.21c.25,.14,.45,.33,.59,.57,.14,.24,.22,.5,.22,.79,0,.22-.03,.43-.09,.64-.06,.21-.17,.49-.33,.84l-1.65,3.46h-1.42l.84-3.75c-.18-.13-.33-.3-.44-.51-.11-.21-.16-.44-.16-.68,0-.29,.07-.55,.22-.79Z"/><path class="cls-1" d="M450.95,88.62l.93-1.47,7.91,4.89v1.86l-7.83,4.9-1.02-1.43,7.16-4.38-7.16-4.36Z"/><path class="cls-1" d="M212.69,116.06l7.91-4.9,.93,1.47-7.15,4.36,7.15,4.37-1.02,1.44-7.83-4.9v-1.85Z"/><path class="cls-2" d="M233.25,113.82c.62,.98,.93,2.38,.93,4.18,0,1.12-.16,2.1-.47,2.95s-.78,1.52-1.41,2c-.63,.48-1.39,.72-2.29,.72-1.16,0-2.1-.41-2.81-1.23v5.12l-1.97,.24v-15.2h1.69l.14,1.46c.4-.55,.88-.98,1.43-1.27s1.14-.44,1.77-.44c1.37,0,2.37,.49,2.99,1.47Zm-4.92,.54c-.43,.31-.81,.71-1.13,1.2v5.23c.27,.41,.61,.73,1.01,.95,.4,.23,.84,.34,1.32,.34,.86,0,1.5-.33,1.92-1s.64-1.69,.64-3.08-.19-2.44-.58-3.1c-.38-.67-.97-1-1.77-1-.52,0-1,.16-1.43,.47Z"/><path class="cls-1" d="M237.33,112.63l.93-1.47,7.91,4.89v1.86l-7.83,4.9-1.02-1.43,7.15-4.38-7.15-4.36Z"/><path class="cls-1" d="M251.08,111.16l.05,.68c.15,1.99,.23,3.59,.23,4.78v6.81h-1.85v-14.14h2.7l4.82,12.3-.03-.42c-.16-1.95-.25-3.64-.25-5.07v-6.8h1.85v14.14h-2.75l-4.77-12.27Z"/><path class="cls-1" d="M268.99,113.04c.71,.46,1.24,1.12,1.6,1.96,.36,.85,.54,1.85,.54,3s-.18,2.12-.55,2.97c-.37,.85-.91,1.52-1.62,1.99-.72,.48-1.58,.71-2.58,.71s-1.89-.23-2.6-.69-1.25-1.12-1.61-1.97c-.36-.85-.54-1.85-.54-3s.19-2.12,.55-2.97,.91-1.52,1.63-1.99,1.58-.71,2.59-.71,1.88,.23,2.59,.69Zm-4.61,1.88c-.45,.67-.67,1.7-.67,3.1s.22,2.41,.66,3.08c.44,.67,1.11,1.01,2.01,1.01s1.57-.34,2.01-1.01c.44-.67,.66-1.71,.66-3.1s-.22-2.41-.66-3.08c-.44-.67-1.1-1.01-1.99-1.01s-1.57,.34-2.02,1.01Zm-.42-5.62l4.11-2.36,.87,1.63-4.38,1.78-.6-1.05Z"/><path class="cls-1" d="M280.14,121.68c.46-.29,.68-.68,.68-1.17,0-.34-.06-.61-.19-.83-.13-.22-.38-.42-.74-.6-.37-.18-.93-.37-1.67-.56-.81-.21-1.47-.43-1.99-.68-.52-.25-.92-.57-1.21-.97-.29-.4-.43-.9-.43-1.51s.17-1.14,.52-1.6c.35-.46,.84-.81,1.47-1.05,.63-.25,1.37-.37,2.21-.37,1.57,0,2.91,.41,4,1.22l-.84,1.28c-.46-.31-.94-.54-1.44-.71-.5-.16-1.06-.25-1.68-.25-.77,0-1.33,.12-1.68,.35-.36,.23-.53,.56-.53,.98,0,.3,.08,.55,.25,.74,.17,.19,.45,.37,.84,.52,.39,.16,.97,.34,1.73,.55,.78,.21,1.42,.45,1.92,.71,.5,.26,.89,.6,1.17,1.03,.28,.42,.42,.96,.42,1.62,0,.74-.22,1.35-.65,1.85-.43,.49-1,.86-1.7,1.09s-1.47,.35-2.31,.35c-.92,0-1.74-.14-2.46-.41-.72-.27-1.34-.63-1.86-1.08l1.09-1.25c.44,.36,.93,.65,1.48,.86s1.13,.31,1.75,.31c.79,0,1.41-.14,1.86-.43Z"/><path class="cls-1" d="M304.78,121.68c.46-.29,.68-.68,.68-1.17,0-.34-.06-.61-.19-.83-.13-.22-.37-.42-.74-.6-.37-.18-.93-.37-1.67-.56-.81-.21-1.47-.43-1.99-.68-.52-.25-.92-.57-1.21-.97-.29-.4-.43-.9-.43-1.51s.17-1.14,.52-1.6c.34-.46,.83-.81,1.47-1.05,.63-.25,1.37-.37,2.21-.37,1.57,0,2.91,.41,4,1.22l-.84,1.28c-.46-.31-.94-.54-1.44-.71-.5-.16-1.06-.25-1.68-.25-.77,0-1.33,.12-1.68,.35-.36,.23-.53,.56-.53,.98,0,.3,.08,.55,.25,.74,.17,.19,.45,.37,.84,.52,.39,.16,.97,.34,1.73,.55,.78,.21,1.42,.45,1.92,.71,.5,.26,.89,.6,1.17,1.03,.28,.42,.42,.96,.42,1.62,0,.74-.22,1.35-.65,1.85-.43,.49-1,.86-1.7,1.09-.7,.23-1.48,.35-2.31,.35-.92,0-1.74-.14-2.46-.41s-1.34-.63-1.86-1.08l1.09-1.25c.44,.36,.93,.65,1.48,.86,.55,.21,1.13,.31,1.75,.31,.79,0,1.41-.14,1.86-.43Z"/><path class="cls-1" d="M318.25,113.04c.71,.46,1.24,1.12,1.6,1.96s.54,1.85,.54,3-.18,2.12-.55,2.97c-.37,.85-.91,1.52-1.62,1.99-.71,.48-1.57,.71-2.58,.71s-1.89-.23-2.6-.69c-.71-.46-1.25-1.12-1.61-1.97-.36-.85-.54-1.85-.54-3s.18-2.12,.55-2.97c.37-.85,.91-1.52,1.63-1.99,.71-.48,1.58-.71,2.59-.71s1.88,.23,2.59,.69Zm-4.61,1.88c-.45,.67-.67,1.7-.67,3.1s.22,2.41,.66,3.08c.44,.67,1.11,1.01,2.01,1.01s1.57-.34,2.01-1.01c.44-.67,.66-1.71,.66-3.1s-.22-2.41-.66-3.08-1.1-1.01-1.99-1.01-1.57,.34-2.02,1.01Zm-.42-5.62l4.11-2.36,.87,1.63-4.38,1.78-.59-1.05Z"/><path class="cls-1" d="M344.1,113.82c.62,.98,.93,2.38,.93,4.18,0,1.12-.16,2.1-.47,2.95s-.78,1.52-1.41,2c-.63,.48-1.39,.72-2.29,.72-1.16,0-2.1-.41-2.81-1.23v5.12l-1.97,.24v-15.2h1.69l.14,1.46c.4-.55,.88-.98,1.43-1.27,.55-.29,1.13-.44,1.77-.44,1.38,0,2.37,.49,2.99,1.47Zm-4.92,.54c-.43,.31-.81,.71-1.13,1.2v5.23c.27,.41,.61,.73,1.01,.95,.4,.23,.84,.34,1.32,.34,.86,0,1.5-.33,1.93-1s.64-1.69,.64-3.08-.19-2.44-.58-3.1-.97-1-1.77-1c-.52,0-1,.16-1.43,.47Z"/><path class="cls-1" d="M355.21,113.04c.71,.46,1.24,1.12,1.6,1.96s.54,1.85,.54,3-.18,2.12-.55,2.97c-.37,.85-.91,1.52-1.62,1.99-.71,.48-1.57,.71-2.58,.71s-1.89-.23-2.6-.69c-.71-.46-1.25-1.12-1.61-1.97-.36-.85-.54-1.85-.54-3s.18-2.12,.55-2.97c.37-.85,.91-1.52,1.63-1.99,.71-.48,1.58-.71,2.59-.71s1.88,.23,2.59,.69Zm-4.61,1.88c-.45,.67-.67,1.7-.67,3.1s.22,2.41,.66,3.08c.44,.67,1.11,1.01,2.01,1.01s1.57-.34,2.01-1.01c.44-.67,.66-1.71,.66-3.1s-.22-2.41-.66-3.08-1.1-1.01-1.99-1.01-1.57,.34-2.02,1.01Z"/><path class="cls-1" d="M367.14,108.02l1.97,.24v15.17h-1.73l-.16-1.39c-.38,.55-.83,.96-1.35,1.23s-1.09,.41-1.71,.41c-1.35,0-2.38-.51-3.06-1.52-.69-1.01-1.03-2.39-1.03-4.14,0-1.09,.17-2.07,.51-2.93,.34-.86,.83-1.53,1.47-2.02,.64-.49,1.4-.73,2.27-.73,1.16,0,2.1,.41,2.82,1.23v-5.56Zm-4.28,6.91c-.46,.69-.68,1.72-.68,3.09s.21,2.4,.63,3.08c.42,.68,1.03,1.02,1.83,1.02,.97,0,1.81-.54,2.51-1.63v-5.29c-.29-.42-.63-.74-1.02-.97-.39-.23-.82-.34-1.29-.34-.86,0-1.52,.34-1.98,1.03Z"/><path class="cls-1" d="M374.62,118.68c.03,.77,.19,1.4,.47,1.91,.28,.51,.64,.89,1.09,1.13,.45,.24,.96,.36,1.52,.36,.53,0,1.01-.08,1.46-.24s.92-.4,1.4-.73l.89,1.24c-.51,.41-1.1,.73-1.77,.97-.66,.23-1.35,.35-2.05,.35-1.07,0-1.98-.23-2.74-.7-.76-.47-1.34-1.13-1.73-1.98-.4-.85-.59-1.84-.59-2.97s.2-2.06,.59-2.92,.95-1.53,1.68-2.02c.73-.49,1.58-.73,2.55-.73s1.72,.22,2.4,.65c.68,.43,1.2,1.05,1.56,1.85s.54,1.75,.54,2.85c0,.32-.01,.64-.04,.99h-7.24Zm.85-3.95c-.5,.57-.78,1.4-.85,2.51h5.38c-.02-1.09-.26-1.92-.71-2.49-.45-.57-1.08-.86-1.88-.86s-1.45,.28-1.94,.85Z"/><path class="cls-1" d="M394.17,113.01c.39,.44,.58,1.23,.58,2.36v8.05h-1.8v-7.76c0-.47-.02-.83-.05-1.06s-.1-.41-.22-.53c-.11-.12-.28-.18-.52-.18-.65,0-1.24,.4-1.77,1.2v8.34h-1.73v-7.76c0-.47-.01-.83-.05-1.06-.03-.24-.1-.41-.22-.53-.11-.12-.29-.18-.52-.18-.65,0-1.24,.4-1.77,1.2v8.34h-1.8v-10.82h1.52l.12,1.21c.34-.47,.69-.83,1.06-1.09s.79-.38,1.28-.38c.99,0,1.63,.47,1.92,1.41,.33-.45,.68-.8,1.05-1.04,.37-.24,.82-.36,1.33-.36,.64,0,1.16,.22,1.54,.67Z"/><path class="cls-1" d="M404.47,113.04c.71,.46,1.24,1.12,1.6,1.96s.54,1.85,.54,3-.18,2.12-.55,2.97c-.37,.85-.91,1.52-1.62,1.99-.71,.48-1.57,.71-2.58,.71s-1.89-.23-2.6-.69c-.71-.46-1.25-1.12-1.61-1.97-.36-.85-.54-1.85-.54-3s.18-2.12,.55-2.97c.37-.85,.91-1.52,1.63-1.99,.71-.48,1.58-.71,2.59-.71s1.88,.23,2.59,.69Zm-4.61,1.88c-.45,.67-.67,1.7-.67,3.1s.22,2.41,.66,3.08c.44,.67,1.11,1.01,2.01,1.01s1.57-.34,2.01-1.01c.44-.67,.66-1.71,.66-3.1s-.22-2.41-.66-3.08-1.1-1.01-1.99-1.01-1.57,.34-2.02,1.01Z"/><path class="cls-1" d="M415.63,121.68c.46-.29,.68-.68,.68-1.17,0-.34-.06-.61-.19-.83-.13-.22-.37-.42-.74-.6-.37-.18-.93-.37-1.67-.56-.81-.21-1.47-.43-1.99-.68-.52-.25-.92-.57-1.21-.97-.29-.4-.43-.9-.43-1.51s.17-1.14,.52-1.6c.34-.46,.83-.81,1.47-1.05,.63-.25,1.37-.37,2.21-.37,1.57,0,2.91,.41,4,1.22l-.84,1.28c-.46-.31-.94-.54-1.44-.71-.5-.16-1.06-.25-1.68-.25-.77,0-1.33,.12-1.68,.35-.36,.23-.53,.56-.53,.98,0,.3,.08,.55,.25,.74,.17,.19,.45,.37,.84,.52,.39,.16,.97,.34,1.73,.55,.78,.21,1.42,.45,1.92,.71,.5,.26,.89,.6,1.17,1.03,.28,.42,.42,.96,.42,1.62,0,.74-.22,1.35-.65,1.85-.43,.49-1,.86-1.7,1.09-.7,.23-1.48,.35-2.31,.35-.92,0-1.74-.14-2.46-.41s-1.34-.63-1.86-1.08l1.09-1.25c.44,.36,.93,.65,1.48,.86,.55,.21,1.13,.31,1.75,.31,.79,0,1.41-.14,1.86-.43Z"/><path class="cls-1" d="M441.81,112.6h2.02l-3.88,10.82h-2.3l-3.86-10.82h2.09l2.97,9.11,2.96-9.11Z"/><path class="cls-1" d="M448.52,118.68c.03,.77,.19,1.4,.47,1.91,.28,.51,.64,.89,1.09,1.13,.45,.24,.96,.36,1.52,.36,.53,0,1.01-.08,1.46-.24s.92-.4,1.4-.73l.89,1.24c-.51,.41-1.1,.73-1.77,.97-.66,.23-1.35,.35-2.05,.35-1.07,0-1.98-.23-2.74-.7-.76-.47-1.34-1.13-1.73-1.98-.4-.85-.59-1.84-.59-2.97s.2-2.06,.59-2.92,.95-1.53,1.68-2.02c.73-.49,1.58-.73,2.55-.73s1.72,.22,2.4,.65c.68,.43,1.2,1.05,1.56,1.85s.54,1.75,.54,2.85c0,.32-.01,.64-.04,.99h-7.24Zm.85-3.95c-.5,.57-.78,1.4-.85,2.51h5.38c-.02-1.09-.26-1.92-.71-2.49-.45-.57-1.08-.86-1.88-.86s-1.45,.28-1.94,.85Z"/><path class="cls-1" d="M467.51,112.41c.24,.04,.5,.11,.78,.2l-.31,3.8h-1.52v-2.26h0c-1.62,0-2.79,1.16-3.49,3.48v4.34h2.2v1.46h-5.81v-1.46h1.64v-7.9h-1.64v-1.46h3.15l.36,2.53c.43-.94,.95-1.64,1.55-2.1s1.37-.69,2.3-.69c.29,0,.56,.02,.8,.06Z"/><path class="cls-1" d="M485.85,120.22c0,.68,.14,1.17,.41,1.47,.27,.3,.7,.45,1.29,.45,.53,0,1.05-.16,1.56-.47,.5-.31,.9-.7,1.19-1.16v-7.9h1.97v10.82h-1.69l-.14-1.43c-.41,.53-.92,.95-1.54,1.24-.62,.29-1.25,.44-1.9,.44-1.03,0-1.81-.28-2.33-.84-.52-.56-.79-1.35-.79-2.38v-7.86h1.97v7.62Z"/><path class="cls-1" d="M505.02,113.01c.39,.44,.58,1.23,.58,2.36v8.05h-1.8v-7.76c0-.47-.02-.83-.05-1.06s-.1-.41-.22-.53c-.11-.12-.28-.18-.52-.18-.65,0-1.24,.4-1.77,1.2v8.34h-1.73v-7.76c0-.47-.01-.83-.05-1.06-.03-.24-.1-.41-.22-.53-.11-.12-.29-.18-.52-.18-.65,0-1.24,.4-1.77,1.2v8.34h-1.8v-10.82h1.52l.12,1.21c.34-.47,.69-.83,1.06-1.09s.79-.38,1.28-.38c.99,0,1.63,.47,1.92,1.41,.33-.45,.68-.8,1.05-1.04,.37-.24,.82-.36,1.33-.36,.64,0,1.16,.22,1.54,.67Z"/><path class="cls-1" d="M528.85,113.82c.62,.98,.93,2.38,.93,4.18,0,1.12-.16,2.1-.47,2.95s-.78,1.52-1.41,2c-.63,.48-1.39,.72-2.29,.72-1.16,0-2.1-.41-2.81-1.23v5.12l-1.97,.24v-15.2h1.69l.14,1.46c.4-.55,.88-.98,1.43-1.27,.55-.29,1.13-.44,1.77-.44,1.38,0,2.37,.49,2.99,1.47Zm-4.92,.54c-.43,.31-.81,.71-1.13,1.2v5.23c.27,.41,.61,.73,1.01,.95,.4,.23,.84,.34,1.32,.34,.86,0,1.5-.33,1.93-1s.64-1.69,.64-3.08-.19-2.44-.58-3.1-.97-1-1.77-1c-.52,0-1,.16-1.43,.47Z"/><path class="cls-1" d="M539.96,113.04c.71,.46,1.24,1.12,1.6,1.96s.54,1.85,.54,3-.18,2.12-.55,2.97c-.37,.85-.91,1.52-1.62,1.99-.71,.48-1.57,.71-2.58,.71s-1.89-.23-2.6-.69c-.71-.46-1.25-1.12-1.61-1.97-.36-.85-.54-1.85-.54-3s.18-2.12,.55-2.97c.37-.85,.91-1.52,1.63-1.99,.71-.48,1.58-.71,2.59-.71s1.88,.23,2.59,.69Zm-4.61,1.88c-.45,.67-.67,1.7-.67,3.1s.22,2.41,.66,3.08c.44,.67,1.11,1.01,2.01,1.01s1.57-.34,2.01-1.01c.44-.67,.66-1.71,.66-3.1s-.22-2.41-.66-3.08-1.1-1.01-1.99-1.01-1.57,.34-2.02,1.01Z"/><path class="cls-1" d="M547.44,120.22c0,.68,.14,1.17,.41,1.47,.27,.3,.7,.45,1.29,.45,.53,0,1.05-.16,1.56-.47,.5-.31,.9-.7,1.19-1.16v-7.9h1.97v10.82h-1.69l-.14-1.43c-.41,.53-.92,.95-1.54,1.24-.62,.29-1.25,.44-1.9,.44-1.03,0-1.81-.28-2.33-.84-.52-.56-.79-1.35-.79-2.38v-7.86h1.97v7.62Z"/><path class="cls-1" d="M565.56,121.07l.94,1.28c-.48,.4-1.05,.73-1.73,.97s-1.34,.36-2,.36c-1.08,0-2-.23-2.77-.69s-1.36-1.12-1.77-1.96c-.41-.85-.61-1.83-.61-2.96s.21-2.08,.62-2.94c.41-.87,1.01-1.55,1.79-2.04s1.71-.74,2.78-.74c1.4,0,2.63,.42,3.67,1.27l-.93,1.28c-.91-.63-1.82-.94-2.73-.94-.62,0-1.15,.15-1.62,.45-.46,.3-.82,.76-1.08,1.37-.26,.61-.38,1.37-.38,2.28,0,1.34,.28,2.33,.83,2.98,.55,.65,1.3,.97,2.24,.97s1.85-.32,2.75-.94Z"/><path class="cls-1" d="M576.91,113.04c.71,.46,1.24,1.12,1.6,1.96s.54,1.85,.54,3-.18,2.12-.55,2.97c-.37,.85-.91,1.52-1.62,1.99-.71,.48-1.57,.71-2.58,.71s-1.89-.23-2.6-.69c-.71-.46-1.25-1.12-1.61-1.97-.36-.85-.54-1.85-.54-3s.18-2.12,.55-2.97c.37-.85,.91-1.52,1.63-1.99,.71-.48,1.58-.71,2.59-.71s1.88,.23,2.59,.69Zm-4.61,1.88c-.45,.67-.67,1.7-.67,3.1s.22,2.41,.66,3.08c.44,.67,1.11,1.01,2.01,1.01s1.57-.34,2.01-1.01c.44-.67,.66-1.71,.66-3.1s-.22-2.41-.66-3.08-1.1-1.01-1.99-1.01-1.57,.34-2.02,1.01Z"/><path class="cls-1" d="M601.16,108.02l1.97,.24v15.17h-1.73l-.16-1.39c-.38,.55-.83,.96-1.35,1.23s-1.09,.41-1.71,.41c-1.35,0-2.38-.51-3.06-1.52-.69-1.01-1.03-2.39-1.03-4.14,0-1.09,.17-2.07,.51-2.93,.34-.86,.83-1.53,1.47-2.02,.64-.49,1.4-.73,2.27-.73,1.16,0,2.1,.41,2.82,1.23v-5.56Zm-4.28,6.91c-.46,.69-.68,1.72-.68,3.09s.21,2.4,.63,3.08c.42,.68,1.03,1.02,1.83,1.02,.97,0,1.81-.54,2.51-1.63v-5.29c-.29-.42-.63-.74-1.02-.97-.39-.23-.82-.34-1.29-.34-.86,0-1.52,.34-1.98,1.03Z"/><path class="cls-1" d="M613.86,113.04c.71,.46,1.24,1.12,1.6,1.96s.54,1.85,.54,3-.18,2.12-.55,2.97c-.37,.85-.91,1.52-1.62,1.99-.71,.48-1.57,.71-2.58,.71s-1.89-.23-2.6-.69c-.71-.46-1.25-1.12-1.61-1.97-.36-.85-.54-1.85-.54-3s.18-2.12,.55-2.97c.37-.85,.91-1.52,1.63-1.99,.71-.48,1.58-.71,2.59-.71s1.88,.23,2.59,.69Zm-4.61,1.88c-.45,.67-.67,1.7-.67,3.1s.22,2.41,.66,3.08c.44,.67,1.11,1.01,2.01,1.01s1.57-.34,2.01-1.01c.44-.67,.66-1.71,.66-3.1s-.22-2.41-.66-3.08-1.1-1.01-1.99-1.01-1.57,.34-2.02,1.01Z"/><path class="cls-1" d="M639.79,108.17c.49,.1,.97,.25,1.43,.45l-.62,1.42c-.68-.3-1.46-.45-2.32-.45-.74,0-1.29,.14-1.65,.43-.36,.29-.54,.73-.54,1.32v2.07h3.65l-.22,1.5h-3.44v8.51h-1.96v-8.51h-2.53v-1.5h2.53v-2.06c0-.66,.17-1.25,.51-1.75,.34-.5,.82-.89,1.43-1.17,.61-.28,1.31-.42,2.09-.42,.6,0,1.14,.05,1.63,.15Z"/><path class="cls-1" d="M645.97,120.22c0,.68,.14,1.17,.41,1.47,.27,.3,.7,.45,1.29,.45,.53,0,1.05-.16,1.56-.47,.5-.31,.9-.7,1.19-1.16v-7.9h1.97v10.82h-1.69l-.14-1.43c-.41,.53-.92,.95-1.54,1.24-.62,.29-1.25,.44-1.9,.44-1.03,0-1.81-.28-2.33-.84-.52-.56-.79-1.35-.79-2.38v-7.86h1.97v7.62Z"/><path class="cls-1" d="M665.1,122.87c-.38,.25-.85,.44-1.39,.59-.54,.15-1.08,.22-1.62,.22-.79,0-1.46-.14-2.02-.43s-.99-.68-1.27-1.19c-.29-.51-.43-1.1-.43-1.78v-6.2h-2.45v-1.48h2.45v-2.44l1.97-.24v2.68h3.7l-.23,1.48h-3.47v6.18c0,.61,.16,1.06,.47,1.35s.82,.44,1.51,.44,1.41-.17,2.04-.51l.74,1.32Z"/><path class="cls-1" d="M670.6,120.22c0,.68,.14,1.17,.41,1.47,.27,.3,.7,.45,1.29,.45,.53,0,1.05-.16,1.56-.47,.5-.31,.9-.7,1.19-1.16v-7.9h1.97v10.82h-1.69l-.14-1.43c-.41,.53-.92,.95-1.54,1.24-.62,.29-1.25,.44-1.9,.44-1.03,0-1.81-.28-2.33-.84-.52-.56-.79-1.35-.79-2.38v-7.86h1.97v7.62Z"/><path class="cls-1" d="M689.21,112.41c.24,.04,.5,.11,.78,.2l-.31,3.8h-1.52v-2.26h0c-1.62,0-2.79,1.16-3.49,3.48v4.34h2.2v1.46h-5.81v-1.46h1.64v-7.9h-1.64v-1.46h3.15l.36,2.53c.43-.94,.95-1.64,1.55-2.1s1.37-.69,2.3-.69c.29,0,.56,.02,.8,.06Z"/><path class="cls-1" d="M700.08,113.04c.71,.46,1.24,1.12,1.6,1.96s.54,1.85,.54,3-.18,2.12-.55,2.97c-.37,.85-.91,1.52-1.62,1.99-.71,.48-1.57,.71-2.58,.71s-1.89-.23-2.6-.69c-.71-.46-1.25-1.12-1.61-1.97-.36-.85-.54-1.85-.54-3s.18-2.12,.55-2.97c.37-.85,.91-1.52,1.63-1.99,.71-.48,1.58-.71,2.59-.71s1.88,.23,2.59,.69Zm-4.61,1.88c-.45,.67-.67,1.7-.67,3.1s.22,2.41,.66,3.08c.44,.67,1.11,1.01,2.01,1.01s1.57-.34,2.01-1.01c.44-.67,.66-1.71,.66-3.1s-.22-2.41-.66-3.08-1.1-1.01-1.99-1.01-1.57,.34-2.02,1.01Z"/><path class="cls-1" d="M710.68,120.14c.27,.15,.48,.37,.63,.63s.23,.56,.23,.87c0,.27-.04,.55-.11,.83-.08,.28-.2,.6-.37,.98l-1.63,3.74h-1.65l1-4.11c-.22-.16-.4-.36-.53-.62-.13-.26-.19-.53-.19-.83,0-.32,.08-.6,.23-.87s.36-.47,.63-.63c.27-.15,.56-.23,.88-.23s.63,.08,.89,.23Z"/><path class="cls-1" d="M246.36,137.03c.39,.44,.58,1.23,.58,2.36v8.05h-1.8v-7.76c0-.47-.02-.83-.05-1.06-.03-.24-.1-.41-.22-.53s-.29-.18-.52-.18c-.65,0-1.24,.4-1.77,1.2v8.33h-1.72v-7.76c0-.47-.02-.83-.05-1.06-.03-.24-.1-.41-.22-.53-.11-.12-.29-.18-.52-.18-.65,0-1.24,.4-1.77,1.2v8.33h-1.8v-10.82h1.52l.12,1.21c.34-.47,.69-.83,1.06-1.09,.36-.25,.79-.38,1.28-.38,.99,0,1.63,.47,1.92,1.41,.33-.45,.68-.8,1.05-1.04,.37-.24,.82-.37,1.33-.37,.64,0,1.16,.22,1.54,.67Z"/><path class="cls-1" d="M257.83,144.96c0,.42,.07,.73,.2,.93,.13,.2,.35,.35,.65,.45l-.46,1.35c-1.07-.14-1.77-.64-2.09-1.51-.38,.49-.87,.87-1.46,1.13s-1.24,.39-1.96,.39-1.34-.14-1.87-.42-.94-.67-1.22-1.18c-.28-.51-.43-1.09-.43-1.77,0-1.12,.44-1.99,1.32-2.59,.88-.6,2.14-.91,3.79-.91h1.57v-.82c0-.72-.21-1.24-.64-1.57-.43-.33-1.05-.49-1.86-.49-.38,0-.82,.05-1.31,.14-.49,.09-1,.23-1.53,.42l-.5-1.44c1.25-.47,2.47-.71,3.64-.71,1.37,0,2.41,.31,3.11,.93,.7,.62,1.06,1.5,1.06,2.62v5.04Zm-3.11,.87c.46-.26,.85-.62,1.15-1.09v-2.62h-1.44c-1.1,0-1.9,.19-2.4,.56s-.75,.91-.75,1.61c0,.64,.17,1.12,.5,1.44,.33,.32,.83,.49,1.48,.49,.51,0,.99-.13,1.46-.39Z"/><path class="cls-1" d="M267.82,145.7c.46-.29,.68-.68,.68-1.17,0-.33-.06-.61-.19-.83-.13-.22-.38-.42-.74-.6-.37-.18-.93-.37-1.67-.56-.81-.21-1.47-.43-1.99-.68-.52-.25-.92-.57-1.21-.97-.29-.4-.43-.9-.43-1.51s.17-1.14,.52-1.6c.35-.45,.84-.81,1.47-1.05s1.37-.37,2.21-.37c1.57,0,2.91,.41,4,1.22l-.84,1.28c-.46-.31-.94-.54-1.44-.71-.5-.16-1.06-.25-1.68-.25-.77,0-1.33,.12-1.68,.35-.36,.23-.53,.56-.53,.97,0,.3,.08,.55,.25,.74,.17,.19,.45,.37,.84,.52,.39,.16,.97,.34,1.73,.55,.78,.21,1.42,.45,1.92,.71,.5,.26,.89,.6,1.17,1.03,.28,.42,.42,.97,.42,1.62,0,.74-.22,1.35-.65,1.85-.43,.49-1,.86-1.7,1.09-.7,.23-1.47,.35-2.31,.35-.92,0-1.74-.13-2.46-.41-.72-.27-1.34-.63-1.86-1.08l1.09-1.25c.44,.36,.93,.65,1.48,.86,.55,.21,1.13,.31,1.75,.31,.79,0,1.41-.14,1.86-.43Z"/><path class="cls-1" d="M293.62,137.06c.71,.46,1.24,1.12,1.6,1.96,.36,.85,.54,1.85,.54,3s-.18,2.12-.55,2.97c-.37,.85-.91,1.52-1.62,1.99-.71,.48-1.57,.71-2.58,.71s-1.89-.23-2.6-.69c-.71-.46-1.25-1.12-1.61-1.97-.36-.85-.54-1.85-.54-3s.18-2.12,.55-2.97c.37-.85,.91-1.51,1.63-1.99,.71-.48,1.58-.71,2.59-.71s1.88,.23,2.59,.69Zm-4.61,1.88c-.45,.67-.67,1.7-.67,3.1s.22,2.41,.66,3.08c.44,.67,1.11,1.01,2.01,1.01s1.57-.34,2.01-1.01c.44-.67,.66-1.71,.66-3.09s-.22-2.41-.66-3.08-1.1-1.01-1.99-1.01-1.57,.33-2.02,1.01Z"/><path class="cls-1" d="M317.09,145.7c.46-.29,.68-.68,.68-1.17,0-.33-.06-.61-.19-.83-.13-.22-.37-.42-.74-.6-.37-.18-.93-.37-1.67-.56-.81-.21-1.47-.43-1.99-.68-.52-.25-.92-.57-1.21-.97-.29-.4-.43-.9-.43-1.51s.17-1.14,.52-1.6c.34-.45,.83-.81,1.47-1.05s1.37-.37,2.21-.37c1.57,0,2.91,.41,4,1.22l-.84,1.28c-.46-.31-.94-.54-1.44-.71-.5-.16-1.06-.25-1.68-.25-.77,0-1.33,.12-1.68,.35-.36,.23-.53,.56-.53,.97,0,.3,.08,.55,.25,.74,.17,.19,.45,.37,.84,.52,.39,.16,.97,.34,1.73,.55,.78,.21,1.42,.45,1.92,.71s.89,.6,1.17,1.03,.42,.97,.42,1.62c0,.74-.22,1.35-.65,1.85s-1,.86-1.7,1.09c-.7,.23-1.48,.35-2.31,.35-.92,0-1.74-.13-2.46-.41-.72-.27-1.34-.63-1.86-1.08l1.09-1.25c.44,.36,.93,.65,1.48,.86,.55,.21,1.13,.31,1.75,.31,.79,0,1.41-.14,1.86-.43Z"/><path class="cls-1" d="M325.73,144.24c0,.68,.14,1.17,.41,1.47,.27,.3,.7,.45,1.29,.45,.53,0,1.05-.16,1.56-.47,.5-.31,.9-.7,1.19-1.17v-7.9h1.97v10.82h-1.69l-.14-1.43c-.41,.53-.92,.95-1.54,1.24-.62,.29-1.25,.44-1.9,.44-1.03,0-1.81-.28-2.33-.84-.52-.56-.79-1.35-.79-2.38v-7.86h1.97v7.62Z"/><path class="cls-1" d="M344.18,132.19c.49,.1,.97,.25,1.43,.45l-.62,1.42c-.68-.3-1.46-.45-2.32-.45-.74,0-1.29,.14-1.65,.43-.36,.29-.54,.73-.54,1.32v2.07h3.65l-.22,1.5h-3.44v8.51h-1.96v-8.51h-2.53v-1.5h2.53v-2.06c0-.66,.17-1.25,.51-1.75,.34-.5,.82-.89,1.43-1.17,.61-.28,1.31-.42,2.09-.42,.6,0,1.14,.05,1.63,.15Z"/><path class="cls-1" d="M348.89,137.43h5.16v8.51h3.01v1.5h-8.27v-1.5h3.3v-7.01h-3.19v-1.5Zm4.68-4.9c.25,.25,.38,.56,.38,.93s-.13,.7-.38,.95-.58,.38-.99,.38-.72-.13-.97-.38-.38-.57-.38-.95,.13-.68,.38-.93c.25-.25,.58-.37,.97-.37s.73,.12,.99,.37Z"/><path class="cls-1" d="M368.49,145.09l.94,1.28c-.48,.4-1.05,.73-1.73,.97s-1.34,.36-2,.36c-1.08,0-2-.23-2.77-.69s-1.36-1.12-1.77-1.96c-.41-.84-.61-1.83-.61-2.96s.21-2.07,.62-2.94c.41-.86,1.01-1.54,1.79-2.04,.78-.49,1.71-.74,2.78-.74,1.4,0,2.63,.43,3.67,1.27l-.93,1.28c-.91-.63-1.82-.94-2.73-.94-.62,0-1.15,.15-1.62,.45-.46,.3-.82,.76-1.08,1.37s-.38,1.37-.38,2.28c0,1.34,.28,2.34,.83,2.98,.55,.65,1.3,.97,2.24,.97s1.85-.31,2.75-.94Z"/><path class="cls-1" d="M373.53,136.62h5.16v9.32h3.01v1.5h-8.27v-1.5h3.3v-7.82h-3.19v-1.5Zm4.68-4.8c.25,.25,.38,.56,.38,.93s-.13,.7-.38,.95c-.25,.25-.58,.38-.99,.38s-.72-.13-.97-.38c-.25-.25-.38-.57-.38-.95s.13-.68,.38-.93c.25-.25,.58-.38,.97-.38s.73,.12,.99,.38Z"/><path class="cls-1" d="M386.93,142.7c.03,.77,.19,1.4,.47,1.91,.28,.51,.64,.89,1.09,1.13,.45,.24,.96,.36,1.52,.36,.53,0,1.01-.08,1.46-.24s.92-.4,1.4-.73l.89,1.24c-.51,.41-1.1,.73-1.77,.97-.66,.23-1.35,.35-2.05,.35-1.07,0-1.98-.23-2.74-.7-.76-.47-1.34-1.13-1.73-1.98-.4-.85-.59-1.84-.59-2.97s.2-2.06,.59-2.92c.39-.86,.95-1.53,1.68-2.02,.73-.49,1.58-.73,2.55-.73s1.72,.22,2.4,.65c.68,.43,1.2,1.05,1.56,1.85,.36,.81,.54,1.75,.54,2.85,0,.32-.01,.64-.04,.99h-7.24Zm.85-3.95c-.5,.56-.78,1.4-.85,2.51h5.38c-.02-1.09-.26-1.92-.71-2.49-.45-.58-1.08-.86-1.88-.86s-1.45,.28-1.94,.85Z"/><path class="cls-1" d="M397.66,147.44v-10.82h1.69l.14,1.46c.44-.54,.97-.96,1.61-1.26,.64-.3,1.28-.45,1.93-.45,1.02,0,1.78,.28,2.28,.83s.75,1.35,.75,2.37v7.87h-1.97v-6.66c0-.75-.04-1.32-.12-1.71-.08-.4-.25-.69-.49-.88-.25-.19-.62-.29-1.11-.29-.54,0-1.05,.17-1.53,.5s-.89,.74-1.22,1.22v7.83h-1.97Z"/><path class="cls-1" d="M418.76,146.89c-.38,.25-.85,.44-1.39,.59-.54,.15-1.08,.22-1.62,.22-.79,0-1.46-.14-2.02-.43-.56-.28-.99-.68-1.27-1.19s-.43-1.1-.43-1.78v-6.2h-2.45v-1.48h2.45v-2.44l1.97-.24v2.68h3.7l-.23,1.48h-3.47v6.18c0,.61,.16,1.06,.47,1.35,.31,.29,.82,.44,1.51,.44s1.41-.17,2.04-.51l.74,1.32Z"/><path class="cls-1" d="M423.88,142.7c.03,.77,.19,1.4,.47,1.91,.28,.51,.64,.89,1.09,1.13,.45,.24,.96,.36,1.52,.36,.53,0,1.01-.08,1.46-.24s.92-.4,1.4-.73l.89,1.24c-.51,.41-1.1,.73-1.77,.97-.66,.23-1.35,.35-2.05,.35-1.07,0-1.98-.23-2.74-.7-.76-.47-1.34-1.13-1.73-1.98-.4-.85-.59-1.84-.59-2.97s.2-2.06,.59-2.92c.39-.86,.95-1.53,1.68-2.02,.73-.49,1.58-.73,2.55-.73s1.72,.22,2.4,.65c.68,.43,1.2,1.05,1.56,1.85,.36,.81,.54,1.75,.54,2.85,0,.32-.01,.64-.04,.99h-7.24Zm.85-3.95c-.5,.56-.78,1.4-.85,2.51h5.38c-.02-1.09-.26-1.92-.71-2.49-.45-.58-1.08-.86-1.88-.86s-1.45,.28-1.94,.85Z"/><path class="cls-1" d="M454.95,137.84c.62,.98,.93,2.38,.93,4.18,0,1.12-.16,2.1-.47,2.95-.31,.85-.78,1.52-1.41,2s-1.39,.72-2.29,.72c-1.16,0-2.1-.41-2.81-1.23v5.12l-1.97,.24v-15.2h1.69l.14,1.46c.4-.55,.88-.98,1.43-1.27,.55-.29,1.13-.44,1.77-.44,1.38,0,2.37,.49,2.99,1.47Zm-4.92,.54c-.43,.31-.81,.71-1.13,1.2v5.23c.27,.41,.61,.73,1.01,.96,.4,.23,.84,.34,1.32,.34,.86,0,1.5-.33,1.93-1s.64-1.7,.64-3.08-.19-2.44-.58-3.11-.97-1-1.77-1c-.52,0-1,.16-1.43,.47Z"/><path class="cls-1" d="M467.22,144.96c0,.42,.07,.73,.2,.93,.13,.2,.35,.35,.65,.45l-.46,1.35c-1.07-.14-1.77-.64-2.09-1.51-.38,.49-.87,.87-1.46,1.13-.59,.26-1.24,.39-1.95,.39s-1.34-.14-1.87-.42-.94-.67-1.22-1.18c-.28-.51-.43-1.09-.43-1.77,0-1.12,.44-1.99,1.32-2.59,.88-.6,2.14-.91,3.79-.91h1.57v-.82c0-.72-.21-1.24-.64-1.57s-1.05-.49-1.86-.49c-.38,0-.82,.05-1.31,.14-.49,.09-1,.23-1.53,.42l-.5-1.44c1.25-.47,2.47-.71,3.64-.71,1.37,0,2.41,.31,3.11,.93s1.06,1.5,1.06,2.62v5.04Zm-3.11,.87c.47-.26,.85-.62,1.15-1.09v-2.62h-1.44c-1.1,0-1.9,.19-2.4,.56s-.75,.91-.75,1.61c0,.64,.16,1.12,.5,1.44s.83,.49,1.48,.49c.51,0,.99-.13,1.46-.39Z"/><path class="cls-1" d="M479.82,136.43c.24,.04,.5,.11,.78,.19l-.31,3.8h-1.52v-2.26h0c-1.62,0-2.79,1.16-3.49,3.48v4.34h2.2v1.46h-5.81v-1.46h1.64v-7.9h-1.64v-1.46h3.15l.36,2.54c.43-.94,.95-1.64,1.55-2.1,.6-.46,1.37-.69,2.3-.69,.29,0,.56,.02,.8,.06Z"/><path class="cls-1" d="M491.85,144.96c0,.42,.07,.73,.2,.93,.13,.2,.35,.35,.65,.45l-.46,1.35c-1.07-.14-1.77-.64-2.09-1.51-.38,.49-.87,.87-1.46,1.13-.59,.26-1.24,.39-1.95,.39s-1.34-.14-1.87-.42-.94-.67-1.22-1.18c-.28-.51-.43-1.09-.43-1.77,0-1.12,.44-1.99,1.32-2.59,.88-.6,2.14-.91,3.79-.91h1.57v-.82c0-.72-.21-1.24-.64-1.57s-1.05-.49-1.86-.49c-.38,0-.82,.05-1.31,.14-.49,.09-1,.23-1.53,.42l-.5-1.44c1.25-.47,2.47-.71,3.64-.71,1.37,0,2.41,.31,3.11,.93s1.06,1.5,1.06,2.62v5.04Zm-3.11,.87c.47-.26,.85-.62,1.15-1.09v-2.62h-1.44c-1.1,0-1.9,.19-2.4,.56s-.75,.91-.75,1.61c0,.64,.16,1.12,.5,1.44s.83,.49,1.48,.49c.51,0,.99-.13,1.46-.39Z"/><path class="cls-1" d="M516.53,137.84c.62,.98,.93,2.38,.93,4.18,0,1.12-.16,2.1-.47,2.95-.31,.85-.78,1.52-1.41,2s-1.39,.72-2.29,.72c-1.16,0-2.1-.41-2.81-1.23v5.12l-1.97,.24v-15.2h1.69l.14,1.46c.4-.55,.88-.98,1.43-1.27,.55-.29,1.13-.44,1.77-.44,1.38,0,2.37,.49,2.99,1.47Zm-4.92,.54c-.43,.31-.81,.71-1.13,1.2v5.23c.27,.41,.61,.73,1.01,.96,.4,.23,.84,.34,1.32,.34,.86,0,1.5-.33,1.93-1s.64-1.7,.64-3.08-.19-2.44-.58-3.11-.97-1-1.77-1c-.52,0-1,.16-1.43,.47Z"/><path class="cls-1" d="M522.42,142.7c.03,.77,.19,1.4,.47,1.91,.28,.51,.64,.89,1.09,1.13,.45,.24,.96,.36,1.52,.36,.53,0,1.01-.08,1.46-.24s.92-.4,1.4-.73l.89,1.24c-.51,.41-1.1,.73-1.76,.97-.66,.23-1.35,.35-2.05,.35-1.07,0-1.98-.23-2.74-.7-.76-.47-1.34-1.13-1.73-1.98-.4-.85-.59-1.84-.59-2.97s.2-2.06,.59-2.92c.39-.86,.95-1.53,1.68-2.02,.73-.49,1.58-.73,2.55-.73s1.72,.22,2.4,.65c.68,.43,1.2,1.05,1.56,1.85,.36,.81,.54,1.75,.54,2.85,0,.32-.01,.64-.04,.99h-7.24Zm.85-3.95c-.5,.56-.78,1.4-.85,2.51h5.38c-.02-1.09-.26-1.92-.71-2.49-.45-.58-1.08-.86-1.88-.86s-1.45,.28-1.94,.85Z"/><path class="cls-1" d="M541.41,136.43c.24,.04,.5,.11,.78,.19l-.31,3.8h-1.52v-2.26h0c-1.62,0-2.79,1.16-3.49,3.48v4.34h2.2v1.46h-5.81v-1.46h1.64v-7.9h-1.64v-1.46h3.15l.36,2.54c.43-.94,.95-1.64,1.55-2.1,.6-.46,1.37-.69,2.3-.69,.29,0,.56,.02,.8,.06Z"/><path class="cls-1" d="M553.24,145.09l.94,1.28c-.48,.4-1.05,.73-1.73,.97s-1.34,.36-2,.36c-1.08,0-2-.23-2.77-.69s-1.36-1.12-1.77-1.96c-.41-.84-.61-1.83-.61-2.96s.21-2.07,.62-2.94c.41-.86,1.01-1.54,1.79-2.04,.78-.49,1.71-.74,2.78-.74,1.4,0,2.63,.43,3.67,1.27l-.93,1.28c-.91-.63-1.82-.94-2.73-.94-.62,0-1.15,.15-1.62,.45-.46,.3-.82,.76-1.08,1.37s-.38,1.37-.38,2.28c0,1.34,.28,2.34,.83,2.98,.55,.65,1.3,.97,2.24,.97s1.85-.31,2.75-.94Z"/><path class="cls-1" d="M559.37,142.7c.03,.77,.19,1.4,.47,1.91,.28,.51,.64,.89,1.09,1.13,.45,.24,.96,.36,1.52,.36,.53,0,1.01-.08,1.46-.24s.92-.4,1.4-.73l.89,1.24c-.51,.41-1.1,.73-1.77,.97-.66,.23-1.35,.35-2.05,.35-1.07,0-1.98-.23-2.74-.7-.76-.47-1.34-1.13-1.73-1.98-.4-.85-.59-1.84-.59-2.97s.2-2.06,.59-2.92c.39-.86,.95-1.53,1.68-2.02,.73-.49,1.58-.73,2.55-.73s1.72,.22,2.4,.65c.68,.43,1.2,1.05,1.56,1.85,.36,.81,.54,1.75,.54,2.85,0,.32-.01,.64-.04,.99h-7.24Zm.85-3.95c-.5,.56-.78,1.4-.85,2.51h5.38c-.02-1.09-.26-1.92-.71-2.49-.45-.58-1.08-.86-1.88-.86s-1.45,.28-1.94,.85Z"/><path class="cls-1" d="M572.07,137.98c.39-.51,.84-.91,1.36-1.19s1.08-.42,1.68-.42c1.38,0,2.4,.5,3.06,1.49s.98,2.38,.98,4.17c0,1.11-.16,2.09-.5,2.95-.33,.86-.82,1.52-1.46,2.01-.64,.48-1.42,.72-2.33,.72-1.24,0-2.21-.45-2.9-1.35l-.12,1.1h-1.73v-15.17l1.97-.24v5.94Zm4.29,7.14c.45-.68,.68-1.72,.68-3.1,0-2.74-.81-4.11-2.41-4.11-.52,0-1,.16-1.43,.47-.43,.31-.81,.71-1.13,1.2v5.23c.28,.42,.62,.74,1.02,.98,.4,.24,.83,.35,1.29,.35,.86,0,1.52-.34,1.98-1.03Z"/><path class="cls-1" d="M584,142.7c.03,.77,.19,1.4,.47,1.91,.28,.51,.64,.89,1.09,1.13,.45,.24,.96,.36,1.52,.36,.53,0,1.01-.08,1.46-.24s.92-.4,1.4-.73l.89,1.24c-.51,.41-1.1,.73-1.77,.97-.66,.23-1.35,.35-2.05,.35-1.07,0-1.98-.23-2.74-.7-.76-.47-1.34-1.13-1.73-1.98-.4-.85-.59-1.84-.59-2.97s.2-2.06,.59-2.92c.39-.86,.95-1.53,1.68-2.02,.73-.49,1.58-.73,2.55-.73s1.72,.22,2.4,.65c.68,.43,1.2,1.05,1.56,1.85,.36,.81,.54,1.75,.54,2.85,0,.32-.01,.64-.04,.99h-7.24Zm.85-3.95c-.5,.56-.78,1.4-.85,2.51h5.38c-.02-1.09-.26-1.92-.71-2.49-.45-.58-1.08-.86-1.88-.86s-1.45,.28-1.94,.85Z"/><path class="cls-1" d="M602.99,136.43c.24,.04,.5,.11,.78,.19l-.31,3.8h-1.52v-2.26h0c-1.62,0-2.79,1.16-3.49,3.48v4.34h2.2v1.46h-5.81v-1.46h1.64v-7.9h-1.64v-1.46h3.15l.36,2.54c.43-.94,.95-1.64,1.55-2.1,.6-.46,1.37-.69,2.3-.69,.29,0,.56,.02,.8,.06Z"/><path class="cls-1" d="M625.92,137.75l.14-1.13h1.69v15.2l-1.97-.24v-5.44c-.38,.52-.83,.91-1.33,1.16-.51,.26-1.06,.38-1.66,.38-2.65,0-3.98-1.89-3.98-5.66,0-1.1,.16-2.08,.48-2.94s.8-1.53,1.42-2.01c.63-.48,1.38-.72,2.25-.72,1.24,0,2.22,.46,2.96,1.39Zm-5.03,4.29c0,1.38,.2,2.41,.59,3.07s.98,1,1.77,1c.53,0,1-.15,1.43-.44s.8-.68,1.1-1.16v-5.29c-.27-.42-.61-.74-1.01-.97-.4-.22-.84-.34-1.32-.34-1.71,0-2.57,1.38-2.57,4.13Z"/><path class="cls-1" d="M633.65,144.24c0,.68,.14,1.17,.41,1.47,.27,.3,.7,.45,1.29,.45,.53,0,1.05-.16,1.56-.47,.5-.31,.9-.7,1.19-1.17v-7.9h1.97v10.82h-1.69l-.14-1.43c-.41,.53-.92,.95-1.54,1.24-.62,.29-1.25,.44-1.9,.44-1.03,0-1.81-.28-2.33-.84-.52-.56-.79-1.35-.79-2.38v-7.86h1.97v7.62Z"/><path class="cls-1" d="M645.59,142.7c.03,.77,.19,1.4,.47,1.91,.28,.51,.64,.89,1.09,1.13,.45,.24,.96,.36,1.52,.36,.53,0,1.01-.08,1.46-.24s.92-.4,1.4-.73l.89,1.24c-.51,.41-1.1,.73-1.77,.97-.66,.23-1.35,.35-2.05,.35-1.07,0-1.98-.23-2.74-.7-.76-.47-1.34-1.13-1.73-1.98-.4-.85-.59-1.84-.59-2.97s.2-2.06,.59-2.92c.39-.86,.95-1.53,1.68-2.02,.73-.49,1.58-.73,2.55-.73s1.72,.22,2.4,.65c.68,.43,1.2,1.05,1.56,1.85,.36,.81,.54,1.75,.54,2.85,0,.32-.01,.64-.04,.99h-7.24Zm.85-3.95c-.5,.56-.78,1.4-.85,2.51h5.38c-.02-1.09-.26-1.92-.71-2.49-.45-.58-1.08-.86-1.88-.86s-1.45,.28-1.94,.85Z"/><path class="cls-1" d="M670.6,138.03c.42-.54,.94-.95,1.53-1.24,.6-.28,1.22-.43,1.87-.43,1.02,0,1.78,.28,2.28,.83s.75,1.35,.75,2.37v7.87h-1.97v-7.7c0-.64-.14-1.11-.42-1.41s-.72-.44-1.32-.44c-.53,0-1.04,.17-1.52,.5-.48,.34-.89,.74-1.22,1.22v7.82h-1.97v-15.15l1.97-.22v5.95Z"/><path class="cls-1" d="M688.92,144.96c0,.42,.07,.73,.2,.93,.13,.2,.35,.35,.65,.45l-.46,1.35c-1.07-.14-1.77-.64-2.09-1.51-.38,.49-.87,.87-1.46,1.13-.59,.26-1.24,.39-1.95,.39s-1.34-.14-1.87-.42-.94-.67-1.22-1.18c-.28-.51-.43-1.09-.43-1.77,0-1.12,.44-1.99,1.32-2.59,.88-.6,2.14-.91,3.79-.91h1.57v-.82c0-.72-.21-1.24-.64-1.57s-1.05-.49-1.86-.49c-.38,0-.82,.05-1.31,.14-.49,.09-1,.23-1.53,.42l-.5-1.44c1.25-.47,2.47-.71,3.64-.71,1.37,0,2.41,.31,3.11,.93s1.06,1.5,1.06,2.62v5.04Zm-3.11,.87c.47-.26,.85-.62,1.15-1.09v-2.62h-1.44c-1.1,0-1.9,.19-2.4,.56s-.75,.91-.75,1.61c0,.64,.16,1.12,.5,1.44s.83,.49,1.48,.49c.51,0,.99-.13,1.46-.39Zm-3.24-12.51l4.11-2.36,.87,1.63-4.38,1.78-.6-1.05Z"/><path class="cls-1" d="M714.4,137.03c.39,.44,.58,1.23,.58,2.36v8.05h-1.8v-7.76c0-.47-.02-.83-.05-1.06-.03-.24-.1-.41-.22-.53-.11-.12-.28-.18-.52-.18-.65,0-1.24,.4-1.77,1.2v8.33h-1.73v-7.76c0-.47-.01-.83-.05-1.06-.03-.24-.1-.41-.22-.53-.11-.12-.29-.18-.52-.18-.65,0-1.24,.4-1.77,1.2v8.33h-1.8v-10.82h1.52l.12,1.21c.34-.47,.69-.83,1.06-1.09,.36-.25,.79-.38,1.28-.38,.99,0,1.63,.47,1.92,1.41,.33-.45,.68-.8,1.05-1.04,.37-.24,.82-.37,1.33-.37,.64,0,1.16,.22,1.54,.67Z"/><path class="cls-1" d="M719.87,144.24c0,.68,.14,1.17,.41,1.47,.27,.3,.7,.45,1.29,.45,.53,0,1.05-.16,1.56-.47,.5-.31,.9-.7,1.19-1.17v-7.9h1.97v10.82h-1.69l-.14-1.43c-.41,.53-.92,.95-1.54,1.24-.62,.29-1.25,.44-1.9,.44-1.03,0-1.81-.28-2.33-.84-.52-.56-.79-1.35-.79-2.38v-7.86h1.97v7.62Z"/><path class="cls-1" d="M730.72,136.62h5.16v9.32h3.01v1.5h-8.27v-1.5h3.3v-7.82h-3.19v-1.5Zm4.68-4.8c.25,.25,.38,.56,.38,.93s-.13,.7-.38,.95c-.25,.25-.58,.38-.99,.38s-.72-.13-.97-.38c-.25-.25-.38-.57-.38-.95s.13-.68,.38-.93c.25-.25,.58-.38,.97-.38s.73,.12,.99,.38Z"/><path class="cls-1" d="M751.32,146.89c-.38,.25-.85,.44-1.39,.59-.54,.15-1.08,.22-1.62,.22-.79,0-1.46-.14-2.02-.43-.56-.28-.99-.68-1.27-1.19s-.43-1.1-.43-1.78v-6.2h-2.45v-1.48h2.45v-2.44l1.97-.24v2.68h3.7l-.23,1.48h-3.47v6.18c0,.61,.16,1.06,.47,1.35,.31,.29,.82,.44,1.51,.44s1.41-.17,2.04-.51l.74,1.32Z"/><path class="cls-1" d="M761.66,137.06c.71,.46,1.24,1.12,1.6,1.96,.36,.85,.54,1.85,.54,3s-.18,2.12-.55,2.97c-.37,.85-.91,1.52-1.62,1.99-.71,.48-1.57,.71-2.58,.71s-1.89-.23-2.6-.69c-.71-.46-1.25-1.12-1.61-1.97-.36-.85-.54-1.85-.54-3s.18-2.12,.55-2.97c.37-.85,.91-1.51,1.63-1.99,.71-.48,1.58-.71,2.59-.71s1.88,.23,2.59,.69Zm-4.61,1.88c-.45,.67-.67,1.7-.67,3.1s.22,2.41,.66,3.08c.44,.67,1.11,1.01,2.01,1.01s1.57-.34,2.01-1.01c.44-.67,.66-1.71,.66-3.09s-.22-2.41-.66-3.08-1.1-1.01-1.99-1.01-1.57,.33-2.02,1.01Z"/><path class="cls-1" d="M787.46,144.96c0,.42,.07,.73,.2,.93,.13,.2,.35,.35,.65,.45l-.46,1.35c-1.07-.14-1.77-.64-2.09-1.51-.38,.49-.87,.87-1.46,1.13-.59,.26-1.24,.39-1.95,.39s-1.34-.14-1.87-.42-.94-.67-1.22-1.18c-.28-.51-.43-1.09-.43-1.77,0-1.12,.44-1.99,1.32-2.59,.88-.6,2.14-.91,3.79-.91h1.57v-.82c0-.72-.21-1.24-.64-1.57s-1.05-.49-1.86-.49c-.38,0-.82,.05-1.31,.14-.49,.09-1,.23-1.53,.42l-.5-1.44c1.25-.47,2.47-.71,3.64-.71,1.37,0,2.41,.31,3.11,.93s1.06,1.5,1.06,2.62v5.04Zm-3.11,.87c.47-.26,.85-.62,1.15-1.09v-2.62h-1.44c-1.1,0-1.9,.19-2.4,.56s-.75,.91-.75,1.61c0,.64,.16,1.12,.5,1.44s.83,.49,1.48,.49c.51,0,.99-.13,1.46-.39Z"/><path class="cls-1" d="M812.23,132.19c.49,.1,.97,.25,1.43,.45l-.62,1.42c-.68-.3-1.46-.45-2.32-.45-.74,0-1.29,.14-1.65,.43-.36,.29-.54,.73-.54,1.32v2.07h3.65l-.22,1.5h-3.44v8.51h-1.96v-8.51h-2.53v-1.5h2.53v-2.06c0-.66,.17-1.25,.51-1.75,.34-.5,.82-.89,1.43-1.17,.61-.28,1.31-.42,2.09-.42,.6,0,1.14,.05,1.63,.15Z"/><path class="cls-1" d="M824.41,144.96c0,.42,.07,.73,.2,.93,.13,.2,.35,.35,.65,.45l-.46,1.35c-1.07-.14-1.77-.64-2.09-1.51-.38,.49-.87,.87-1.46,1.13-.59,.26-1.24,.39-1.95,.39s-1.34-.14-1.87-.42-.94-.67-1.22-1.18c-.28-.51-.43-1.09-.43-1.77,0-1.12,.44-1.99,1.32-2.59,.88-.6,2.14-.91,3.79-.91h1.57v-.82c0-.72-.21-1.24-.64-1.57s-1.05-.49-1.86-.49c-.38,0-.82,.05-1.31,.14-.49,.09-1,.23-1.53,.42l-.5-1.44c1.25-.47,2.47-.71,3.64-.71,1.37,0,2.41,.31,3.11,.93s1.06,1.5,1.06,2.62v5.04Zm-3.11,.87c.47-.26,.85-.62,1.15-1.09v-2.62h-1.44c-1.1,0-1.9,.19-2.4,.56s-.75,.91-.75,1.61c0,.64,.16,1.12,.5,1.44s.83,.49,1.48,.49c.51,0,.99-.13,1.46-.39Z"/><path class="cls-1" d="M837.05,138.1l-5.86,7.71h5.92l-.24,1.63h-8.08v-1.47l5.9-7.71h-5.43v-1.64h7.78v1.48Z"/><path class="cls-1" d="M842.66,142.7c.03,.77,.19,1.4,.47,1.91,.28,.51,.64,.89,1.09,1.13,.45,.24,.96,.36,1.52,.36,.53,0,1.01-.08,1.46-.24s.92-.4,1.4-.73l.89,1.24c-.51,.41-1.1,.73-1.77,.97-.66,.23-1.35,.35-2.05,.35-1.07,0-1.98-.23-2.74-.7-.76-.47-1.34-1.13-1.73-1.98-.4-.85-.59-1.84-.59-2.97s.2-2.06,.59-2.92c.39-.86,.95-1.53,1.68-2.02,.73-.49,1.58-.73,2.55-.73s1.72,.22,2.4,.65c.68,.43,1.2,1.05,1.56,1.85,.36,.81,.54,1.75,.54,2.85,0,.32-.01,.64-.04,.99h-7.24Zm.85-3.95c-.5,.56-.78,1.4-.85,2.51h5.38c-.02-1.09-.26-1.92-.71-2.49-.45-.58-1.08-.86-1.88-.86s-1.45,.28-1.94,.85Z"/><path class="cls-1" d="M861.65,136.43c.24,.04,.5,.11,.78,.19l-.31,3.8h-1.52v-2.26h0c-1.62,0-2.79,1.16-3.49,3.48v4.34h2.2v1.46h-5.81v-1.46h1.64v-7.9h-1.64v-1.46h3.15l.36,2.54c.43-.94,.95-1.64,1.55-2.1,.6-.46,1.37-.69,2.3-.69,.29,0,.56,.02,.8,.06Z"/><path class="cls-1" d="M868.26,144.86c.16-.28,.39-.51,.67-.68,.28-.17,.6-.25,.95-.25s.68,.08,.97,.25c.29,.17,.52,.39,.68,.68,.17,.28,.25,.6,.25,.94s-.08,.67-.25,.96c-.17,.29-.4,.52-.68,.69-.29,.17-.61,.25-.97,.25s-.66-.08-.95-.25c-.28-.17-.51-.4-.67-.69-.16-.29-.25-.61-.25-.96s.08-.65,.25-.94Z"/><path class="cls-1" d="M888.47,146.51l7.62-15.7,1.56,.75-9.22,19.02-1.58-.71,.86-1.77-9.91-6.17v-1.85l7.91-4.9,.93,1.47-7.15,4.36,8.97,5.49Z"/><path class="cls-2" d="M910.68,137.84c.62,.98,.93,2.38,.93,4.18,0,1.12-.16,2.1-.47,2.95-.31,.85-.78,1.52-1.41,2s-1.39,.72-2.29,.72c-1.16,0-2.1-.41-2.81-1.23v5.12l-1.97,.24v-15.2h1.69l.14,1.46c.4-.55,.88-.98,1.43-1.27,.55-.29,1.13-.44,1.77-.44,1.38,0,2.37,.49,2.99,1.47Zm-4.92,.54c-.43,.31-.81,.71-1.13,1.2v5.23c.27,.41,.61,.73,1.01,.96,.4,.23,.84,.34,1.32,.34,.86,0,1.5-.33,1.93-1s.64-1.7,.64-3.08-.19-2.44-.58-3.11-.97-1-1.77-1c-.52,0-1,.16-1.43,.47Z"/><path class="cls-1" d="M914.75,136.65l.93-1.47,7.91,4.89v1.86l-7.83,4.9-1.02-1.43,7.16-4.38-7.16-4.36Z"/><path class="cls-1" d="M212.69,164.1l7.91-4.9,.93,1.47-7.15,4.36,7.15,4.37-1.02,1.44-7.83-4.9v-1.85Z"/><path class="cls-2" d="M225.73,160.64h5.16v9.32h3.01v1.5h-8.27v-1.5h3.29v-7.82h-3.19v-1.5Zm4.68-4.8c.25,.25,.38,.56,.38,.93s-.13,.7-.38,.95c-.25,.25-.58,.38-.99,.38s-.72-.13-.97-.38c-.25-.25-.38-.57-.38-.95s.13-.68,.38-.93c.25-.25,.58-.38,.97-.38s.73,.12,.99,.38Z"/><path class="cls-1" d="M237.33,160.67l.93-1.47,7.91,4.89v1.86l-7.83,4.9-1.02-1.43,7.15-4.38-7.15-4.36Z"/><path class="cls-1" d="M257.75,171.46l-1.07-3.52h-5.36l-1.07,3.52h-2.04l4.56-14.14h2.57l4.57,14.14h-2.16Zm-3.74-12.5l-2.22,7.35h4.41l-2.2-7.35Z"/><path class="cls-1" d="M266.62,168.67c0,.49,.15,.85,.46,1.08,.3,.23,.73,.34,1.27,.34,.57,0,1.16-.12,1.78-.37l.51,1.41c-.34,.17-.73,.31-1.18,.42-.45,.11-.94,.16-1.48,.16-.68,0-1.27-.13-1.77-.38-.5-.26-.88-.62-1.16-1.1s-.41-1.05-.41-1.7v-10.74h-3.29v-1.5h5.27v12.38Z"/><path class="cls-1" d="M282.47,168.98c0,.42,.07,.73,.2,.93,.13,.2,.35,.35,.65,.45l-.46,1.35c-1.08-.14-1.77-.64-2.09-1.51-.38,.49-.87,.87-1.46,1.13s-1.24,.39-1.96,.39-1.34-.14-1.87-.42-.94-.67-1.22-1.18c-.28-.51-.43-1.09-.43-1.77,0-1.12,.44-1.99,1.32-2.59,.88-.6,2.14-.91,3.79-.91h1.57v-.82c0-.72-.21-1.24-.64-1.57-.43-.33-1.05-.49-1.86-.49-.38,0-.82,.05-1.31,.14-.49,.09-1,.23-1.53,.42l-.5-1.44c1.25-.47,2.47-.71,3.64-.71,1.37,0,2.41,.31,3.11,.93,.7,.62,1.06,1.5,1.06,2.62v5.04Zm-3.11,.87c.46-.26,.85-.62,1.15-1.09v-2.62h-1.44c-1.1,0-1.9,.19-2.4,.56s-.75,.91-.75,1.61c0,.64,.17,1.12,.5,1.44,.33,.32,.83,.49,1.48,.49,.51,0,.99-.13,1.46-.39Z"/><path class="cls-1" d="M286.81,171.46v-10.82h1.69l.14,1.46c.44-.54,.97-.96,1.61-1.26,.64-.3,1.28-.45,1.93-.45,1.02,0,1.78,.28,2.28,.83s.75,1.35,.75,2.37v7.87h-1.97v-6.66c0-.75-.04-1.32-.12-1.71-.08-.4-.25-.69-.49-.88-.25-.19-.62-.29-1.11-.29-.54,0-1.05,.17-1.53,.5s-.89,.74-1.22,1.22v7.83h-1.97Z"/><path class="cls-1" d="M320.84,159.01h-4.21v12.45h-2.03v-12.45h-4.35v-1.69h10.81l-.22,1.69Z"/><path class="cls-1" d="M325.73,168.26c0,.68,.14,1.17,.41,1.47,.27,.3,.7,.45,1.29,.45,.53,0,1.05-.16,1.56-.47,.5-.31,.9-.7,1.19-1.17v-7.9h1.97v10.82h-1.69l-.14-1.43c-.41,.53-.92,.95-1.54,1.24-.62,.29-1.25,.44-1.9,.44-1.03,0-1.81-.28-2.33-.84-.52-.56-.79-1.35-.79-2.38v-7.86h1.97v7.62Z"/><path class="cls-1" d="M344.34,160.45c.24,.04,.5,.11,.78,.19l-.31,3.8h-1.52v-2.26h0c-1.62,0-2.79,1.16-3.49,3.48v4.34h2.2v1.46h-5.81v-1.46h1.64v-7.9h-1.64v-1.46h3.15l.36,2.54c.43-.94,.95-1.64,1.55-2.1,.6-.46,1.37-.69,2.3-.69,.29,0,.56,.02,.8,.06Z"/><path class="cls-1" d="M348.9,160.64h5.16v9.32h3.01v1.5h-8.27v-1.5h3.3v-7.82h-3.19v-1.5Zm4.68-4.8c.25,.25,.38,.56,.38,.93s-.13,.7-.38,.95c-.25,.25-.58,.38-.99,.38s-.72-.13-.97-.38c-.25-.25-.38-.57-.38-.95s.13-.68,.38-.93c.25-.25,.58-.38,.97-.38s.73,.12,.99,.38Z"/><path class="cls-1" d="M360.71,171.46v-10.82h1.69l.14,1.46c.44-.54,.97-.96,1.61-1.26,.64-.3,1.28-.45,1.93-.45,1.02,0,1.78,.28,2.28,.83s.75,1.35,.75,2.37v7.87h-1.97v-6.66c0-.75-.04-1.32-.12-1.71-.08-.4-.25-.69-.49-.88-.25-.19-.62-.29-1.11-.29-.54,0-1.05,.17-1.53,.5s-.89,.74-1.22,1.22v7.83h-1.97Z"/><path class="cls-1" d="M382.53,161.14c-.42,.13-.87,.22-1.37,.27s-1.09,.07-1.79,.07c1.28,.58,1.92,1.49,1.92,2.73,0,.71-.17,1.35-.5,1.9-.34,.56-.82,.99-1.44,1.3-.63,.31-1.36,.47-2.21,.47-.34,0-.62-.02-.86-.05s-.47-.08-.7-.15c-.16,.11-.28,.25-.38,.43-.1,.18-.14,.36-.14,.55,0,.27,.1,.48,.31,.63s.57,.23,1.09,.23h1.92c.73,0,1.39,.13,1.99,.39,.59,.26,1.06,.62,1.39,1.07,.33,.45,.5,.95,.5,1.51,0,1.07-.46,1.9-1.37,2.48-.91,.58-2.22,.87-3.91,.87-1.18,0-2.11-.12-2.79-.36-.68-.24-1.17-.6-1.46-1.08-.29-.48-.44-1.1-.44-1.86h1.78c0,.42,.08,.76,.24,1.02,.16,.25,.45,.44,.87,.57,.42,.13,1.02,.19,1.79,.19,1.14,0,1.98-.14,2.5-.42,.52-.28,.79-.7,.79-1.27,0-.47-.21-.84-.63-1.09-.42-.26-.98-.38-1.67-.38h-1.9c-.62,0-1.15-.09-1.57-.28-.42-.18-.74-.43-.94-.74s-.31-.65-.31-1.03c0-.36,.1-.7,.31-1.04,.21-.33,.5-.63,.88-.88-.63-.34-1.09-.75-1.39-1.23-.3-.49-.45-1.08-.45-1.78,0-.73,.19-1.39,.56-1.96,.37-.58,.89-1.02,1.56-1.35,.67-.32,1.43-.48,2.28-.48s1.56-.04,2.14-.12c.58-.08,1.07-.18,1.46-.32,.4-.13,.85-.32,1.35-.56l.57,1.75Zm-7.31,1.3c-.41,.43-.61,1.01-.61,1.74s.21,1.32,.62,1.75c.41,.43,1.02,.65,1.82,.65,.72,0,1.27-.21,1.66-.63,.39-.42,.58-1.02,.58-1.79s-.19-1.37-.57-1.77c-.38-.4-.95-.6-1.7-.6s-1.38,.22-1.79,.65Z"/><path class="cls-1" d="M395.79,170.53l7.62-15.7,1.56,.75-9.22,19.02-1.58-.71,.86-1.77-9.91-6.17v-1.85l7.91-4.9,.93,1.47-7.15,4.36,8.97,5.49Z"/><path class="cls-2" d="M410.48,160.64h5.16v9.32h3.01v1.5h-8.27v-1.5h3.3v-7.82h-3.19v-1.5Zm4.68-4.8c.25,.25,.38,.56,.38,.93s-.13,.7-.38,.95c-.25,.25-.58,.38-.99,.38s-.72-.13-.97-.38c-.25-.25-.38-.57-.38-.95s.13-.68,.38-.93c.25-.25,.58-.38,.97-.38s.73,.12,.99,.38Z"/><path class="cls-1" d="M422.08,160.67l.93-1.47,7.91,4.89v1.86l-7.83,4.9-1.02-1.43,7.16-4.38-7.16-4.36Z"/><path class="cls-1" d="M178.32,194.55l7.62-15.7,1.56,.75-9.22,19.02-1.58-.71,.86-1.77-9.91-6.17v-1.85l7.91-4.9,.93,1.47-7.15,4.36,8.97,5.49Z"/><path class="cls-2" d="M198.93,180.07l1.97,.24v15.17h-1.73l-.16-1.39c-.38,.55-.83,.96-1.35,1.23s-1.09,.41-1.71,.41c-1.35,0-2.38-.51-3.06-1.52s-1.03-2.39-1.03-4.14c0-1.09,.17-2.07,.51-2.93s.83-1.53,1.47-2.02c.64-.49,1.4-.73,2.27-.73,1.16,0,2.1,.41,2.82,1.23v-5.56Zm-4.29,6.91c-.46,.69-.68,1.72-.68,3.09s.21,2.4,.63,3.08c.42,.68,1.03,1.02,1.83,1.02,.97,0,1.81-.54,2.51-1.63v-5.29c-.29-.42-.63-.74-1.02-.97-.39-.22-.82-.34-1.29-.34-.86,0-1.52,.34-1.98,1.03Z"/><path class="cls-2" d="M205.33,184.66h5.16v9.32h3.01v1.5h-8.27v-1.5h3.29v-7.82h-3.19v-1.5Zm4.68-4.8c.25,.25,.38,.56,.38,.93s-.13,.7-.38,.95c-.25,.25-.58,.38-.99,.38s-.72-.13-.97-.38c-.25-.25-.38-.57-.38-.95s.13-.68,.38-.93c.25-.25,.58-.38,.97-.38s.73,.12,.99,.38Z"/><path class="cls-2" d="M224.33,184.66h2.02l-3.88,10.82h-2.3l-3.86-10.82h2.09l2.97,9.11,2.96-9.11Z"/><path class="cls-1" d="M229.24,184.69l.93-1.47,7.91,4.89v1.86l-7.83,4.9-1.02-1.43,7.15-4.38-7.15-4.36Z"/><path class="cls-2" d="M128.21,208.75c-.3-1.02-.76-1.95-1.38-2.79-.62-.84-1.44-1.74-2.47-2.69l1.07-1.07c1.18,.97,2.16,1.94,2.92,2.89,.76,.96,1.35,2.03,1.76,3.2,.41,1.18,.62,2.52,.62,4.02s-.21,2.85-.62,4.02c-.41,1.18-1,2.24-1.76,3.2-.76,.96-1.74,1.92-2.92,2.89l-1.07-1.07c1.04-.95,1.87-1.85,2.48-2.7,.61-.85,1.07-1.78,1.38-2.8,.3-1.02,.46-2.2,.46-3.56s-.15-2.55-.46-3.57Z"/><path class="cls-1" d="M140.22,216.23c.27,.15,.48,.36,.63,.63,.15,.26,.23,.55,.23,.87,0,.27-.04,.55-.11,.83-.08,.28-.2,.61-.37,.97l-1.62,3.73h-1.65l.99-4.1c-.22-.16-.39-.36-.52-.62-.13-.25-.19-.53-.19-.82,0-.31,.08-.6,.23-.87,.15-.26,.36-.47,.63-.63s.56-.23,.88-.23,.63,.08,.89,.23Zm0-7.08c.27,.15,.48,.37,.63,.63s.23,.56,.23,.87-.08,.61-.23,.87c-.15,.27-.36,.48-.63,.64s-.56,.24-.89,.24-.61-.08-.88-.24-.47-.37-.63-.64c-.15-.27-.23-.56-.23-.87s.08-.61,.23-.87,.36-.48,.63-.63,.56-.23,.88-.23,.63,.08,.89,.23Z"/><path class="cls-3" d="M78.84,226.36c2.87,0,4.31,.95,4.31,2.84,0,.2,0,.35-.02,.45l-.4,3.76c-.01,.15-.02,.26-.02,.32,0,.62,.24,1.07,.72,1.37,.48,.3,1.27,.45,2.36,.45v1.58c-1.08,0-1.86,.15-2.35,.45-.49,.3-.73,.76-.73,1.38,0,.06,0,.17,.02,.32l.4,3.75c.01,.1,.02,.25,.02,.45,0,1.89-1.44,2.84-4.31,2.84v-1.5c.81,0,1.44-.12,1.89-.36,.44-.24,.64-.65,.59-1.22l-.41-4.02c-.02-.2-.03-.38-.03-.54,0-.73,.19-1.26,.56-1.61,.38-.35,.97-.58,1.79-.7-.79-.13-1.38-.38-1.77-.76s-.58-.92-.58-1.64c0-.16,.01-.32,.03-.49l.41-4.02s0-.1,0-.17c0-.94-.83-1.41-2.48-1.41v-1.5Z"/><path class="cls-2" d="M79.39,286.81c.03,.77,.19,1.4,.47,1.91,.28,.51,.64,.89,1.09,1.13,.45,.24,.96,.37,1.52,.37,.53,0,1.01-.08,1.46-.24,.45-.16,.92-.4,1.4-.73l.89,1.24c-.51,.41-1.1,.73-1.77,.96-.66,.23-1.35,.35-2.05,.35-1.07,0-1.98-.23-2.74-.7-.76-.47-1.34-1.13-1.73-1.98s-.6-1.84-.6-2.97,.2-2.06,.59-2.92c.39-.86,.95-1.53,1.68-2.02,.73-.49,1.58-.73,2.55-.73s1.72,.22,2.4,.65c.68,.43,1.2,1.05,1.56,1.85,.36,.8,.54,1.75,.54,2.85,0,.31-.01,.64-.04,.98h-7.24Zm.85-3.95c-.5,.56-.78,1.4-.85,2.51h5.38c-.02-1.09-.26-1.92-.71-2.49-.45-.57-1.08-.86-1.88-.86s-1.45,.28-1.94,.85Z"/><path class="cls-2" d="M94.25,287.01l-2.85,4.55h-2.22l3.95-5.71-3.48-5.11h2.3l2.38,3.93,2.4-3.93h2.21l-3.45,5.03,3.95,5.79h-2.37l-2.82-4.55Z"/><path class="cls-2" d="M110.46,281.95c.62,.98,.93,2.38,.93,4.18,0,1.12-.16,2.1-.47,2.95-.31,.85-.78,1.52-1.41,2s-1.39,.72-2.29,.72c-1.16,0-2.1-.41-2.81-1.23v5.12l-1.97,.24v-15.2h1.69l.14,1.46c.4-.55,.88-.98,1.43-1.27,.55-.29,1.14-.44,1.77-.44,1.37,0,2.37,.49,2.99,1.47Zm-4.92,.54c-.43,.31-.81,.71-1.13,1.2v5.23c.27,.41,.61,.73,1.01,.95,.4,.23,.84,.34,1.32,.34,.86,0,1.5-.33,1.92-1,.43-.67,.64-1.7,.64-3.08s-.19-2.44-.58-3.11c-.38-.67-.97-1-1.77-1-.52,0-1,.16-1.43,.47Z"/><path class="cls-2" d="M121.56,281.17c.71,.46,1.24,1.12,1.6,1.96,.36,.85,.54,1.85,.54,3s-.18,2.12-.55,2.97c-.37,.85-.91,1.52-1.62,1.99-.72,.48-1.58,.71-2.58,.71s-1.89-.23-2.6-.69-1.25-1.12-1.61-1.97c-.36-.85-.54-1.85-.54-3s.19-2.12,.55-2.97,.91-1.51,1.63-1.99c.72-.48,1.58-.71,2.59-.71s1.88,.23,2.59,.69Zm-4.61,1.88c-.45,.67-.67,1.7-.67,3.1s.22,2.41,.66,3.08c.44,.67,1.11,1.01,2.01,1.01s1.57-.34,2.01-1.01c.44-.67,.66-1.71,.66-3.09s-.22-2.41-.66-3.08c-.44-.67-1.1-1.01-1.99-1.01s-1.57,.33-2.02,1.01Z"/><path class="cls-2" d="M135.33,280.54c.24,.04,.5,.11,.78,.19l-.31,3.8h-1.52v-2.26h-.01c-1.62,0-2.79,1.16-3.49,3.48v4.34h2.2v1.46h-5.81v-1.46h1.64v-7.9h-1.64v-1.46h3.15l.36,2.54c.43-.94,.95-1.64,1.55-2.1s1.37-.69,2.3-.69c.29,0,.56,.02,.8,.06Z"/><path class="cls-2" d="M148.17,291c-.38,.25-.85,.44-1.39,.59-.54,.15-1.08,.22-1.62,.22-.79,0-1.46-.14-2.02-.43-.56-.28-.99-.68-1.27-1.19-.29-.51-.43-1.1-.43-1.78v-6.2h-2.45v-1.48h2.45v-2.44l1.97-.24v2.68h3.69l-.23,1.48h-3.47v6.18c0,.61,.16,1.06,.47,1.35s.82,.44,1.51,.44,1.41-.17,2.04-.51l.74,1.32Z"/><path class="cls-2" d="M170.45,276.15l1.97,.24v15.17h-1.73l-.16-1.39c-.38,.55-.83,.96-1.35,1.23s-1.09,.41-1.71,.41c-1.35,0-2.38-.51-3.06-1.52s-1.03-2.39-1.03-4.14c0-1.1,.17-2.07,.51-2.93s.83-1.53,1.47-2.02c.64-.49,1.4-.73,2.27-.73,1.16,0,2.1,.41,2.82,1.23v-5.56Zm-4.29,6.91c-.46,.69-.68,1.72-.68,3.1s.21,2.4,.63,3.08c.42,.68,1.03,1.02,1.83,1.02,.97,0,1.81-.54,2.51-1.63v-5.29c-.29-.42-.63-.74-1.02-.97s-.82-.34-1.29-.34c-.86,0-1.52,.34-1.98,1.03Z"/><path class="cls-2" d="M177.93,286.81c.03,.77,.19,1.4,.47,1.91,.28,.51,.64,.89,1.09,1.13,.45,.24,.96,.37,1.52,.37,.53,0,1.01-.08,1.46-.24,.45-.16,.92-.4,1.4-.73l.89,1.24c-.51,.41-1.1,.73-1.77,.96-.66,.23-1.35,.35-2.05,.35-1.07,0-1.98-.23-2.74-.7-.76-.47-1.34-1.13-1.73-1.98s-.6-1.84-.6-2.97,.2-2.06,.59-2.92c.39-.86,.95-1.53,1.68-2.02,.73-.49,1.58-.73,2.55-.73s1.72,.22,2.4,.65c.68,.43,1.2,1.05,1.56,1.85,.36,.8,.54,1.75,.54,2.85,0,.31-.01,.64-.04,.98h-7.24Zm.85-3.95c-.5,.56-.78,1.4-.85,2.51h5.38c-.02-1.09-.26-1.92-.71-2.49-.45-.57-1.08-.86-1.88-.86s-1.45,.28-1.94,.85Z"/><path class="cls-2" d="M196.76,276.3c.49,.1,.97,.25,1.43,.45l-.62,1.42c-.68-.3-1.46-.45-2.32-.45-.74,0-1.29,.14-1.65,.43s-.54,.73-.54,1.32v2.07h3.65l-.22,1.5h-3.44v8.51h-1.96v-8.51h-2.54v-1.5h2.54v-2.06c0-.66,.17-1.25,.51-1.75,.34-.5,.82-.89,1.43-1.17,.61-.28,1.31-.42,2.09-.42,.6,0,1.14,.05,1.63,.15Z"/><path class="cls-2" d="M208.95,289.07c0,.42,.07,.73,.2,.93,.13,.2,.35,.35,.65,.45l-.46,1.35c-1.07-.14-1.77-.64-2.09-1.51-.38,.49-.87,.87-1.46,1.13s-1.24,.39-1.96,.39-1.34-.14-1.87-.42-.94-.67-1.22-1.18c-.28-.51-.43-1.09-.43-1.77,0-1.12,.44-1.99,1.32-2.59,.88-.61,2.14-.91,3.79-.91h1.57v-.82c0-.72-.21-1.24-.64-1.57-.43-.33-1.05-.49-1.86-.49-.38,0-.82,.05-1.31,.14-.49,.09-1,.23-1.53,.42l-.5-1.44c1.25-.47,2.47-.71,3.64-.71,1.37,0,2.41,.31,3.11,.93,.7,.62,1.06,1.5,1.06,2.62v5.04Zm-3.11,.87c.46-.26,.85-.62,1.15-1.09v-2.62h-1.44c-1.1,0-1.9,.19-2.4,.56-.5,.37-.75,.91-.75,1.61,0,.64,.17,1.12,.5,1.44,.33,.32,.83,.49,1.48,.49,.51,0,.99-.13,1.46-.39Z"/><path class="cls-2" d="M215.26,288.35c0,.68,.14,1.17,.41,1.47,.27,.3,.7,.45,1.29,.45,.53,0,1.05-.16,1.56-.47,.5-.31,.9-.7,1.2-1.16v-7.9h1.97v10.82h-1.69l-.14-1.43c-.41,.53-.92,.95-1.54,1.24s-1.25,.44-1.9,.44c-1.03,0-1.81-.28-2.34-.84-.52-.56-.78-1.35-.78-2.38v-7.86h1.97v7.62Z"/><path class="cls-2" d="M230.05,288.77c0,.49,.15,.85,.46,1.08,.3,.23,.73,.34,1.27,.34,.57,0,1.16-.12,1.78-.37l.51,1.41c-.34,.17-.73,.31-1.18,.42-.45,.11-.94,.16-1.48,.16-.68,0-1.27-.13-1.77-.38-.5-.26-.88-.62-1.16-1.1s-.41-1.05-.41-1.7v-10.74h-3.29v-1.5h5.27v12.38Z"/><path class="cls-2" d="M246.71,291c-.38,.25-.85,.44-1.39,.59-.54,.15-1.08,.22-1.62,.22-.79,0-1.46-.14-2.02-.43-.56-.28-.99-.68-1.27-1.19-.29-.51-.43-1.1-.43-1.78v-6.2h-2.45v-1.48h2.45v-2.44l1.97-.24v2.68h3.69l-.23,1.48h-3.47v6.18c0,.61,.16,1.06,.47,1.35s.82,.44,1.51,.44,1.41-.17,2.04-.51l.74,1.32Z"/><g><path class="cls-1" d="M268.98,276.15l1.97,.24v15.17h-1.73l-.16-1.39c-.38,.55-.83,.96-1.35,1.23s-1.09,.41-1.71,.41c-1.35,0-2.38-.51-3.06-1.52s-1.03-2.39-1.03-4.14c0-1.1,.17-2.07,.51-2.93s.83-1.53,1.47-2.02c.64-.49,1.4-.73,2.27-.73,1.16,0,2.1,.41,2.82,1.23v-5.56Zm-4.29,6.91c-.46,.69-.68,1.72-.68,3.1s.21,2.4,.63,3.08c.42,.68,1.03,1.02,1.83,1.02,.97,0,1.81-.54,2.51-1.63v-5.29c-.29-.42-.63-.74-1.02-.97s-.82-.34-1.29-.34c-.86,0-1.52,.34-1.98,1.03Z"/><path class="cls-1" d="M281.69,281.17c.71,.46,1.24,1.12,1.6,1.96s.54,1.85,.54,3-.18,2.12-.55,2.97c-.37,.85-.91,1.52-1.62,1.99s-1.58,.71-2.58,.71-1.89-.23-2.6-.69-1.25-1.12-1.61-1.97c-.36-.85-.54-1.85-.54-3s.19-2.12,.55-2.97,.91-1.51,1.63-1.99c.72-.48,1.58-.71,2.59-.71s1.88,.23,2.59,.69Zm-4.61,1.88c-.45,.67-.67,1.7-.67,3.1s.22,2.41,.66,3.08c.44,.67,1.11,1.01,2.01,1.01s1.57-.34,2.01-1.01c.44-.67,.66-1.71,.66-3.09s-.22-2.41-.66-3.08c-.44-.67-1.1-1.01-1.99-1.01s-1.57,.33-2.02,1.01Z"/><path class="cls-1" d="M296.16,277.41l.8,14.14h-1.91l-.4-7.17c-.05-1.09-.08-2.27-.08-3.54,0-.81,0-1.34,.02-1.6l-2.26,9.8h-1.91l-2.42-9.8c.04,.78,.06,1.74,.06,2.88,0,.87-.01,1.62-.04,2.26l-.34,7.17h-1.87l.8-14.14h2.64l2.18,9.6,2.07-9.6h2.66Z"/><path class="cls-1" d="M306.32,281.17c.71,.46,1.24,1.12,1.6,1.96s.54,1.85,.54,3-.18,2.12-.55,2.97c-.37,.85-.91,1.52-1.62,1.99-.71,.48-1.57,.71-2.58,.71s-1.89-.23-2.6-.69c-.71-.46-1.25-1.12-1.61-1.97s-.54-1.85-.54-3,.18-2.12,.55-2.97c.37-.85,.91-1.51,1.63-1.99,.71-.48,1.58-.71,2.59-.71s1.88,.23,2.59,.69Zm-4.61,1.88c-.45,.67-.67,1.7-.67,3.1s.22,2.41,.66,3.08c.44,.67,1.11,1.01,2.01,1.01s1.57-.34,2.01-1.01,.66-1.71,.66-3.09-.22-2.41-.66-3.08-1.1-1.01-1.99-1.01-1.57,.33-2.02,1.01Z"/><path class="cls-1" d="M320.09,280.54c.24,.04,.5,.11,.78,.19l-.31,3.8h-1.52v-2.26h0c-1.62,0-2.79,1.16-3.49,3.48v4.34h2.2v1.46h-5.81v-1.46h1.64v-7.9h-1.64v-1.46h3.15l.36,2.54c.43-.94,.95-1.64,1.55-2.1s1.37-.69,2.3-.69c.29,0,.56,.02,.8,.06Z"/><path class="cls-1" d="M325.73,286.81c.03,.77,.19,1.4,.47,1.91,.28,.51,.64,.89,1.09,1.13,.45,.24,.96,.37,1.52,.37,.53,0,1.01-.08,1.46-.24,.45-.16,.92-.4,1.4-.73l.89,1.24c-.51,.41-1.1,.73-1.77,.96-.66,.23-1.35,.35-2.05,.35-1.07,0-1.98-.23-2.74-.7-.76-.47-1.34-1.13-1.73-1.98s-.59-1.84-.59-2.97,.2-2.06,.59-2.92,.95-1.53,1.68-2.02c.73-.49,1.58-.73,2.55-.73s1.72,.22,2.4,.65c.68,.43,1.2,1.05,1.56,1.85s.54,1.75,.54,2.85c0,.31-.01,.64-.04,.98h-7.24Zm.85-3.95c-.5,.56-.78,1.4-.85,2.51h5.38c-.02-1.09-.26-1.92-.71-2.49-.45-.57-1.08-.86-1.88-.86s-1.45,.28-1.94,.85Z"/><path class="cls-1" d="M341.53,288.29c.27,.15,.48,.36,.63,.63,.15,.26,.23,.55,.23,.87,0,.27-.04,.55-.11,.83-.08,.28-.2,.61-.37,.97l-1.62,3.73h-1.65l.99-4.1c-.22-.16-.39-.36-.52-.62-.13-.25-.2-.53-.2-.82,0-.31,.08-.6,.23-.87,.15-.26,.36-.47,.63-.63s.56-.23,.88-.23,.63,.08,.89,.23Zm0-7.08c.27,.15,.48,.36,.63,.63,.15,.27,.23,.56,.23,.87s-.08,.61-.23,.87c-.15,.27-.36,.48-.63,.64-.27,.16-.56,.24-.89,.24s-.61-.08-.88-.24c-.26-.16-.47-.37-.63-.64-.16-.27-.23-.56-.23-.87s.08-.6,.23-.87c.15-.27,.36-.48,.63-.63s.56-.23,.88-.23,.63,.08,.89,.23Z"/></g></g></svg>