<?xml version="1.0" encoding="UTF-8"?><svg id="Layer_1" xmlns="http://www.w3.org/2000/svg" viewBox="0 0 1000 1500"><defs><style>.cls-1{fill:#fff;}.cls-2{fill:#3d3d3d;}</style></defs><rect class="cls-2" width="1000" height="1500"/><g><path class="cls-1" d="M53.25,89.48c0,2.5-.46,4.71-1.39,6.63s-2.24,3.4-3.95,4.44-3.65,1.56-5.83,1.56-4.11-.5-5.8-1.5-3-2.43-3.95-4.3-1.44-4-1.49-6.42v-1.44c0-2.51,.46-4.72,1.38-6.64s2.24-3.4,3.96-4.44,3.67-1.56,5.86-1.56,4.1,.52,5.8,1.55,3.02,2.5,3.96,4.4,1.42,4.09,1.43,6.55v1.18Zm-6.28-1.07c0-2.54-.42-4.47-1.27-5.79s-2.07-1.98-3.65-1.98c-3.09,0-4.73,2.32-4.9,6.96l-.02,1.88c0,2.51,.42,4.44,1.25,5.78s2.07,2.02,3.71,2.02,2.76-.66,3.6-1.99,1.27-3.23,1.28-5.71v-1.18Z"/><path class="cls-1" d="M62.41,101.74h-5.94v-27h5.94v27Z"/><path class="cls-1" d="M76.77,101.74c-.21-.39-.4-.96-.56-1.71-1.09,1.37-2.61,2.06-4.57,2.06-1.79,0-3.32-.54-4.57-1.63s-1.88-2.45-1.88-4.09c0-2.06,.76-3.62,2.29-4.68s3.74-1.58,6.64-1.58h1.83v-1.01c0-1.75-.76-2.63-2.27-2.63-1.41,0-2.11,.69-2.11,2.08h-5.92c0-1.84,.78-3.33,2.35-4.48s3.56-1.72,5.99-1.72,4.34,.59,5.75,1.78,2.13,2.81,2.16,4.87v8.42c.02,1.75,.29,3.08,.81,4.01v.3h-5.92Zm-2.23-27h6.26l-4.89,5.52h-4.83l3.46-5.52Zm-1.48,23.13c.74,0,1.35-.16,1.84-.47s.83-.67,1.05-1.07v-3.04h-1.72c-2.06,0-3.09,.93-3.09,2.78,0,.54,.18,.98,.54,1.31s.83,.5,1.39,.5Z"/><path class="cls-1" d="M87.25,108.64l-2.99-1.41,.6-1.2c.82-1.52,1.25-2.98,1.28-4.36v-4.39h4.75l-.02,3.81c-.01,1.35-.36,2.72-1.04,4.11s-1.54,2.54-2.58,3.43Z"/><path class="cls-1" d="M121.49,92.39c0,3.12-.64,5.51-1.93,7.19s-3.11,2.51-5.45,2.51c-1.93,0-3.49-.77-4.68-2.3l-.25,1.95h-5.31v-27h5.92v9.51c1.1-1.25,2.53-1.88,4.27-1.88,2.37,0,4.2,.85,5.48,2.55s1.93,4.09,1.93,7.17v.3Zm-5.94-.38c0-1.83-.24-3.13-.73-3.9-.49-.78-1.23-1.17-2.24-1.17-1.34,0-2.26,.51-2.78,1.53v7.55c.5,1.01,1.44,1.51,2.81,1.51s2.28-.68,2.65-2.04c.19-.67,.28-1.83,.28-3.47Z"/><path class="cls-1" d="M133.3,102.1c-2.92,0-5.28-.87-7.08-2.61s-2.71-4-2.71-6.79v-.49c0-1.95,.36-3.66,1.08-5.15s1.77-2.64,3.16-3.45,3.02-1.22,4.92-1.22c2.67,0,4.78,.83,6.33,2.49s2.32,3.97,2.32,6.93v2.3h-11.78c.21,1.07,.67,1.9,1.39,2.51s1.64,.91,2.78,.91c1.88,0,3.34-.66,4.39-1.97l2.71,3.2c-.74,1.02-1.78,1.83-3.14,2.43s-2.81,.91-4.37,.91Zm-.67-15.15c-1.73,0-2.77,1.15-3.09,3.45h5.98v-.46c.02-.95-.22-1.68-.72-2.21s-1.22-.78-2.16-.78Z"/><path class="cls-1" d="M149.3,82.73l.19,2.23c1.35-1.72,3.16-2.58,5.43-2.58,2.4,0,4.03,.96,4.87,2.87,1.29-1.91,3.15-2.87,5.59-2.87,3.86,0,5.84,2.33,5.94,7v12.38h-5.94v-12.01c0-.97-.16-1.68-.49-2.13s-.93-.67-1.79-.67c-1.17,0-2.04,.52-2.62,1.56l.02,.25v12.99h-5.94v-11.97c0-1-.16-1.72-.47-2.16s-.92-.67-1.81-.67c-1.14,0-2,.52-2.6,1.56v13.24h-5.92v-19.02h5.55Z"/><path class="cls-1" d="M191.26,94.7l3.01-11.97h6.24l-6.21,19.02h-6.05l-6.21-19.02h6.26l2.95,11.97Z"/><path class="cls-1" d="M202.23,77.82c0-.84,.3-1.54,.91-2.07s1.4-.81,2.37-.81,1.76,.27,2.37,.81,.91,1.23,.91,2.07-.3,1.54-.91,2.07-1.4,.81-2.37,.81-1.76-.27-2.37-.81-.91-1.23-.91-2.07Zm6.29,23.92h-5.94v-19.02h5.94v19.02Z"/><path class="cls-1" d="M217.61,82.73l.19,2.23c1.31-1.72,3.12-2.58,5.43-2.58,1.98,0,3.46,.59,4.44,1.78s1.49,2.96,1.52,5.34v12.25h-5.94v-12.01c0-.96-.19-1.67-.58-2.12s-1.09-.68-2.11-.68c-1.16,0-2.02,.46-2.58,1.37v13.43h-5.92v-19.02h5.55Z"/><path class="cls-1" d="M231.72,92.09c0-3.01,.65-5.38,1.95-7.12s3.12-2.6,5.45-2.6c1.7,0,3.13,.67,4.29,2v-9.63h5.94v27h-5.33l-.3-2.04c-1.22,1.59-2.77,2.39-4.64,2.39-2.26,0-4.05-.87-5.38-2.6s-1.99-4.2-1.99-7.4Zm5.92,.37c0,3.38,.98,5.06,2.95,5.06,1.31,0,2.25-.55,2.81-1.65v-7.24c-.54-1.12-1.46-1.69-2.78-1.69-1.83,0-2.82,1.48-2.97,4.43l-.02,1.09Z"/><path class="cls-1" d="M251.97,92.06c0-1.9,.37-3.59,1.11-5.07s1.8-2.62,3.18-3.42,3.01-1.2,4.87-1.2c2.85,0,5.09,.88,6.73,2.65s2.46,4.16,2.46,7.2v.21c0,2.96-.82,5.32-2.47,7.06s-3.88,2.61-6.69,2.61-4.88-.81-6.52-2.43-2.53-3.82-2.65-6.6l-.02-1Zm5.92,.37c0,1.76,.28,3.05,.83,3.87s1.37,1.23,2.44,1.23c2.11,0,3.19-1.62,3.23-4.87v-.6c0-3.41-1.09-5.12-3.27-5.12-1.98,0-3.05,1.47-3.22,4.41l-.02,1.07Z"/><path class="cls-1" d="M292.62,101.74c-.21-.39-.4-.96-.56-1.71-1.09,1.37-2.61,2.06-4.57,2.06-1.79,0-3.32-.54-4.57-1.63s-1.88-2.45-1.88-4.09c0-2.06,.76-3.62,2.29-4.68s3.74-1.58,6.64-1.58h1.83v-1.01c0-1.75-.76-2.63-2.27-2.63-1.41,0-2.11,.69-2.11,2.08h-5.92c0-1.84,.78-3.33,2.35-4.48s3.56-1.72,5.99-1.72,4.34,.59,5.75,1.78,2.13,2.81,2.16,4.87v8.42c.02,1.75,.29,3.08,.81,4.01v.3h-5.92Zm-3.71-3.87c.74,0,1.35-.16,1.84-.47s.83-.67,1.05-1.07v-3.04h-1.72c-2.06,0-3.09,.93-3.09,2.78,0,.54,.18,.98,.54,1.31s.83,.5,1.39,.5Z"/><path class="cls-1" d="M300.26,92.06c0-1.9,.37-3.59,1.11-5.07s1.8-2.62,3.18-3.42,3.01-1.2,4.87-1.2c2.85,0,5.09,.88,6.73,2.65s2.46,4.16,2.46,7.2v.21c0,2.96-.82,5.32-2.47,7.06s-3.88,2.61-6.69,2.61-4.88-.81-6.52-2.43-2.53-3.82-2.65-6.6l-.02-1Zm5.92,.37c0,1.76,.28,3.05,.83,3.87s1.37,1.23,2.44,1.23c2.11,0,3.19-1.62,3.23-4.87v-.6c0-3.41-1.09-5.12-3.27-5.12-1.98,0-3.05,1.47-3.22,4.41l-.02,1.07Z"/><path class="cls-1" d="M335.79,82.73l.19,2.23c1.35-1.72,3.16-2.58,5.43-2.58,2.4,0,4.03,.96,4.87,2.87,1.29-1.91,3.15-2.87,5.59-2.87,3.86,0,5.84,2.33,5.94,7v12.38h-5.94v-12.01c0-.97-.16-1.68-.49-2.13s-.93-.67-1.79-.67c-1.17,0-2.04,.52-2.62,1.56l.02,.25v12.99h-5.94v-11.97c0-1-.16-1.72-.47-2.16s-.92-.67-1.81-.67c-1.14,0-2,.52-2.6,1.56v13.24h-5.92v-19.02h5.55Z"/><path class="cls-1" d="M370.4,102.1c-2.92,0-5.28-.87-7.08-2.61s-2.71-4-2.71-6.79v-.49c0-1.95,.36-3.66,1.08-5.15s1.77-2.64,3.16-3.45,3.02-1.22,4.92-1.22c2.67,0,4.78,.83,6.33,2.49s2.32,3.97,2.32,6.93v2.3h-11.78c.21,1.07,.67,1.9,1.39,2.51s1.64,.91,2.78,.91c1.88,0,3.34-.66,4.39-1.97l2.71,3.2c-.74,1.02-1.78,1.83-3.14,2.43s-2.81,.91-4.37,.91Zm-.67-15.15c-1.73,0-2.77,1.15-3.09,3.45h5.98v-.46c.02-.95-.22-1.68-.72-2.21s-1.22-.78-2.16-.78Z"/><path class="cls-1" d="M392.12,99.69c-1.25,1.61-2.95,2.41-5.08,2.41s-3.67-.61-4.74-1.82-1.61-2.96-1.61-5.23v-12.32h5.92v12.36c0,1.63,.79,2.44,2.37,2.44,1.36,0,2.33-.49,2.9-1.46v-13.34h5.96v19.02h-5.55l-.18-2.06Z"/><path class="cls-1" d="M427.72,92.38c0,2.95-.67,5.31-2,7.08s-3.13,2.65-5.39,2.65c-1.75,0-3.18-.64-4.31-1.92v8.88h-5.92v-26.33h5.54l.18,1.76c1.14-1.41,2.63-2.11,4.48-2.11,2.34,0,4.17,.86,5.47,2.59s1.95,4.1,1.95,7.13v.28Zm-5.92-.37c0-3.38-.98-5.06-2.95-5.06-1.41,0-2.34,.5-2.81,1.51v7.49c.52,1.05,1.46,1.58,2.85,1.58,1.89,0,2.86-1.63,2.92-4.89v-.63Z"/><path class="cls-1" d="M439.53,102.1c-2.92,0-5.28-.87-7.08-2.61s-2.71-4-2.71-6.79v-.49c0-1.95,.36-3.66,1.08-5.15s1.77-2.64,3.16-3.45,3.02-1.22,4.92-1.22c2.67,0,4.78,.83,6.33,2.49s2.32,3.97,2.32,6.93v2.3h-11.78c.21,1.07,.67,1.9,1.39,2.51s1.64,.91,2.78,.91c1.88,0,3.34-.66,4.39-1.97l2.71,3.2c-.74,1.02-1.78,1.83-3.14,2.43s-2.81,.91-4.37,.91Zm-.67-15.15c-1.73,0-2.77,1.15-3.09,3.45h5.98v-.46c.02-.95-.22-1.68-.72-2.21s-1.22-.78-2.16-.78Z"/><path class="cls-1" d="M461.44,88.09l-1.95-.14c-1.86,0-3.06,.59-3.59,1.76v12.04h-5.92v-19.02h5.55l.19,2.44c1-1.86,2.38-2.79,4.17-2.79,.63,0,1.18,.07,1.65,.21l-.11,5.5Z"/><path class="cls-1" d="M465.23,101.74v-14.91h-2.76v-4.11h2.76v-1.51c0-2.17,.64-3.85,1.92-5.04s3.07-1.79,5.38-1.79c.84,0,1.77,.12,2.78,.37l.02,4.36c-.36-.11-.85-.16-1.46-.16-1.79,0-2.69,.77-2.69,2.32v1.46h3.71v4.11h-3.71v14.91h-5.94Z"/><path class="cls-1" d="M476.92,77.82c0-.84,.3-1.54,.91-2.07s1.4-.81,2.37-.81,1.76,.27,2.37,.81,.91,1.23,.91,2.07-.3,1.54-.91,2.07-1.4,.81-2.37,.81-1.76-.27-2.37-.81-.91-1.23-.91-2.07Zm6.29,23.92h-5.94v-19.02h5.94v19.02Z"/><path class="cls-1" d="M493.11,101.74h-5.94v-27h5.94v27Z"/><path class="cls-1" d="M523.38,92.38c0,2.95-.67,5.31-2,7.08s-3.13,2.65-5.39,2.65c-1.75,0-3.18-.64-4.31-1.92v8.88h-5.92v-26.33h5.54l.18,1.76c1.14-1.41,2.63-2.11,4.48-2.11,2.34,0,4.17,.86,5.47,2.59s1.95,4.1,1.95,7.13v.28Zm-5.92-.37c0-3.38-.98-5.06-2.95-5.06-1.41,0-2.34,.5-2.81,1.51v7.49c.52,1.05,1.46,1.58,2.85,1.58,1.89,0,2.86-1.63,2.92-4.89v-.63Z"/><path class="cls-1" d="M535.19,102.1c-2.92,0-5.28-.87-7.08-2.61s-2.71-4-2.71-6.79v-.49c0-1.95,.36-3.66,1.08-5.15s1.77-2.64,3.16-3.45,3.02-1.22,4.92-1.22c2.67,0,4.78,.83,6.33,2.49s2.32,3.97,2.32,6.93v2.3h-11.78c.21,1.07,.67,1.9,1.39,2.51s1.64,.91,2.78,.91c1.88,0,3.34-.66,4.39-1.97l2.71,3.2c-.74,1.02-1.78,1.83-3.14,2.43s-2.81,.91-4.37,.91Zm-.67-15.15c-1.73,0-2.77,1.15-3.09,3.45h5.98v-.46c.02-.95-.22-1.68-.72-2.21s-1.22-.78-2.16-.78Z"/><path class="cls-1" d="M555.55,96.4c0-.5-.26-.91-.79-1.21s-1.53-.62-3.01-.95-2.7-.76-3.66-1.29-1.69-1.18-2.2-1.94-.76-1.63-.76-2.62c0-1.75,.72-3.18,2.16-4.32s3.33-1.7,5.66-1.7c2.51,0,4.52,.57,6.05,1.71s2.29,2.63,2.29,4.48h-5.94c0-1.52-.8-2.29-2.41-2.29-.62,0-1.14,.17-1.56,.52s-.63,.78-.63,1.29,.26,.96,.77,1.28,1.34,.6,2.47,.81,2.12,.46,2.98,.76c2.86,.98,4.29,2.75,4.29,5.29,0,1.73-.77,3.15-2.31,4.24s-3.54,1.63-5.99,1.63c-1.63,0-3.08-.29-4.36-.88s-2.27-1.38-2.99-2.39-1.07-2.07-1.07-3.18h5.54c.02,.88,.32,1.52,.88,1.92s1.28,.61,2.16,.61c.81,0,1.42-.16,1.82-.49s.61-.76,.61-1.28Z"/><path class="cls-1" d="M573.99,96.4c0-.5-.26-.91-.79-1.21s-1.53-.62-3.01-.95-2.7-.76-3.66-1.29-1.69-1.18-2.2-1.94-.76-1.63-.76-2.62c0-1.75,.72-3.18,2.16-4.32s3.33-1.7,5.66-1.7c2.51,0,4.52,.57,6.05,1.71s2.29,2.63,2.29,4.48h-5.94c0-1.52-.8-2.29-2.41-2.29-.62,0-1.14,.17-1.56,.52s-.63,.78-.63,1.29,.26,.96,.77,1.28,1.34,.6,2.47,.81,2.12,.46,2.98,.76c2.86,.98,4.29,2.75,4.29,5.29,0,1.73-.77,3.15-2.31,4.24s-3.54,1.63-5.99,1.63c-1.63,0-3.08-.29-4.36-.88s-2.27-1.38-2.99-2.39-1.07-2.07-1.07-3.18h5.54c.02,.88,.32,1.52,.88,1.92s1.28,.61,2.16,.61c.81,0,1.42-.16,1.82-.49s.61-.76,.61-1.28Z"/><path class="cls-1" d="M581.72,92.06c0-1.9,.37-3.59,1.11-5.07s1.8-2.62,3.18-3.42,3.01-1.2,4.87-1.2c2.85,0,5.09,.88,6.73,2.65s2.46,4.16,2.46,7.2v.21c0,2.96-.82,5.32-2.47,7.06s-3.88,2.61-6.69,2.61-4.88-.81-6.52-2.43-2.53-3.82-2.65-6.6l-.02-1Zm5.92,.37c0,1.76,.28,3.05,.83,3.87s1.37,1.23,2.44,1.23c2.11,0,3.19-1.62,3.23-4.87v-.6c0-3.41-1.09-5.12-3.27-5.12-1.98,0-3.05,1.47-3.22,4.41l-.02,1.07Z"/><path class="cls-1" d="M613.4,101.74c-.21-.39-.4-.96-.56-1.71-1.09,1.37-2.61,2.06-4.57,2.06-1.79,0-3.32-.54-4.57-1.63s-1.88-2.45-1.88-4.09c0-2.06,.76-3.62,2.29-4.68s3.74-1.58,6.64-1.58h1.83v-1.01c0-1.75-.76-2.63-2.27-2.63-1.41,0-2.11,.69-2.11,2.08h-5.92c0-1.84,.78-3.33,2.35-4.48s3.56-1.72,5.99-1.72,4.34,.59,5.75,1.78,2.13,2.81,2.16,4.87v8.42c.02,1.75,.29,3.08,.81,4.01v.3h-5.92Zm-3.71-3.87c.74,0,1.35-.16,1.84-.47s.83-.67,1.05-1.07v-3.04h-1.72c-2.06,0-3.09,.93-3.09,2.78,0,.54,.18,.98,.54,1.31s.83,.5,1.39,.5Z"/><path class="cls-1" d="M628.04,101.74h-5.94v-27h5.94v27Z"/><path class="cls-1" d="M646.09,82.73l.19,2.23c1.31-1.72,3.12-2.58,5.43-2.58,1.98,0,3.46,.59,4.44,1.78s1.49,2.96,1.52,5.34v12.25h-5.94v-12.01c0-.96-.19-1.67-.58-2.12s-1.09-.68-2.11-.68c-1.16,0-2.02,.46-2.58,1.37v13.43h-5.92v-19.02h5.55Z"/><path class="cls-1" d="M660.21,92.06c0-1.9,.37-3.59,1.11-5.07s1.8-2.62,3.18-3.42,3.01-1.2,4.87-1.2c2.85,0,5.09,.88,6.73,2.65s2.46,4.16,2.46,7.2v.21c0,2.96-.82,5.32-2.47,7.06s-3.88,2.61-6.69,2.61-4.88-.81-6.52-2.43-2.53-3.82-2.65-6.6l-.02-1Zm5.92,.37c0,1.76,.28,3.05,.83,3.87s1.37,1.23,2.44,1.23c2.11,0,3.19-1.62,3.23-4.87v-.6c0-3.41-1.09-5.12-3.27-5.12-1.98,0-3.05,1.47-3.22,4.41l-.02,1.07Z"/><path class="cls-1" d="M711.36,98.58c-.95,1.05-2.34,1.9-4.17,2.55s-3.83,.97-6.01,.97c-3.35,0-6.03-1.03-8.03-3.08s-3.08-4.9-3.22-8.56l-.02-2.21c0-2.52,.45-4.72,1.34-6.6s2.17-3.33,3.82-4.34,3.58-1.52,5.76-1.52c3.19,0,5.66,.73,7.43,2.19s2.79,3.64,3.08,6.53h-5.94c-.21-1.43-.67-2.45-1.37-3.06s-1.7-.91-2.99-.91c-1.55,0-2.74,.66-3.59,1.97s-1.27,3.19-1.28,5.62v1.55c0,2.55,.44,4.47,1.31,5.76s2.25,1.92,4.12,1.92c1.61,0,2.8-.36,3.59-1.07v-3.97h-4.29v-4.24h10.46v10.51Z"/><path class="cls-1" d="M714.63,77.82c0-.84,.3-1.54,.91-2.07s1.4-.81,2.37-.81,1.76,.27,2.37,.81,.91,1.23,.91,2.07-.3,1.54-.91,2.07-1.4,.81-2.37,.81-1.76-.27-2.37-.81-.91-1.23-.91-2.07Zm6.29,23.92h-5.94v-19.02h5.94v19.02Z"/><path class="cls-1" d="M731.47,78v4.73h3.13v4.11h-3.13v8.7c0,.71,.13,1.21,.39,1.49s.77,.42,1.53,.42c.59,0,1.08-.04,1.48-.11v4.24c-1.07,.34-2.18,.51-3.34,.51-2.04,0-3.54-.48-4.52-1.44s-1.46-2.42-1.46-4.38v-9.44h-2.43v-4.11h2.43v-4.73h5.92Z"/><path class="cls-1" d="M758.59,101.74h-6.13v-10.69h-9.09v10.69h-6.17v-25.59h6.17v10.16h9.09v-10.16h6.13v25.59Z"/><path class="cls-1" d="M773.55,99.69c-1.25,1.61-2.95,2.41-5.08,2.41s-3.67-.61-4.74-1.82-1.61-2.96-1.61-5.23v-12.32h5.92v12.36c0,1.63,.79,2.44,2.37,2.44,1.36,0,2.33-.49,2.9-1.46v-13.34h5.96v19.02h-5.55l-.18-2.06Z"/><path class="cls-1" d="M800.18,92.39c0,3.12-.64,5.51-1.93,7.19s-3.11,2.51-5.45,2.51c-1.93,0-3.49-.77-4.68-2.3l-.25,1.95h-5.31v-27h5.92v9.51c1.1-1.25,2.53-1.88,4.27-1.88,2.37,0,4.2,.85,5.48,2.55s1.93,4.09,1.93,7.17v.3Zm-5.94-.38c0-1.83-.24-3.13-.73-3.9-.49-.78-1.23-1.17-2.24-1.17-1.34,0-2.26,.51-2.78,1.53v7.55c.5,1.01,1.44,1.51,2.81,1.51s2.28-.68,2.65-2.04c.19-.67,.28-1.83,.28-3.47Z"/></g></svg>